<svg width="811" height="1080" viewBox="0 0 811 1080" fill="none" xmlns="http://www.w3.org/2000/svg">
<rect width="811" height="1080" fill="#005AD6"/>
<g filter="url(#filter0_d)">
<path d="M100 124.48C100 110.96 110.96 100 124.48 100H687.52C701.04 100 712 110.96 712 124.48V539.16C712 552.68 701.04 563.64 687.52 563.64H124.48C110.96 563.64 100 552.68 100 539.16V124.48Z" fill="white"/>
<rect x="124.48" y="124.48" width="563.04" height="55.08" rx="12.24" fill="#767679" fill-opacity="0.15"/>
<path d="M149.266 161.72H151.552V143.394H149.279L144.402 146.899V149.312L149.063 145.934H149.266V161.72ZM163.122 162.152C166.869 162.152 169.421 159.561 169.421 155.789C169.421 152.157 166.881 149.744 163.808 149.744C161.979 149.744 160.62 150.303 159.731 151.407H159.528L160.1 145.438H168.482V143.394H158.309L157.255 153.871H159.401C160.125 152.512 161.497 151.712 163.236 151.712C165.548 151.712 167.135 153.376 167.135 155.853C167.135 158.418 165.548 160.145 163.148 160.145C160.989 160.145 159.414 158.837 159.211 156.881H156.963C157.166 160.018 159.655 162.152 163.122 162.152ZM176.978 153.274H179.251C181.83 153.274 183.417 154.595 183.417 156.716C183.417 158.774 181.703 160.158 179.29 160.158C176.927 160.158 175.276 158.926 175.073 156.996H172.863C173.028 160.107 175.594 162.152 179.315 162.152C182.96 162.152 185.767 159.853 185.767 156.78C185.767 154.227 184.192 152.614 181.817 152.233V152.03C183.696 151.484 185.068 150.023 185.081 147.813C185.094 145.248 183.011 142.962 179.391 142.962C175.683 142.962 173.409 145.159 173.181 148.144H175.403C175.594 146.086 177.029 144.956 179.239 144.956C181.449 144.956 182.757 146.353 182.757 148.067C182.757 149.972 181.258 151.319 179.15 151.319H176.978V153.274ZM195.533 162.152C199.28 162.152 201.832 159.561 201.832 155.789C201.832 152.157 199.292 149.744 196.219 149.744C194.39 149.744 193.031 150.303 192.142 151.407H191.939L192.51 145.438H200.893V143.394H190.72L189.666 153.871H191.812C192.536 152.512 193.907 151.712 195.647 151.712C197.959 151.712 199.546 153.376 199.546 155.853C199.546 158.418 197.959 160.145 195.558 160.145C193.399 160.145 191.825 158.837 191.621 156.881H189.373C189.577 160.018 192.066 162.152 195.533 162.152ZM209.389 153.274H211.662C214.24 153.274 215.828 154.595 215.828 156.716C215.828 158.774 214.113 160.158 211.7 160.158C209.338 160.158 207.687 158.926 207.484 156.996H205.274C205.439 160.107 208.005 162.152 211.726 162.152C215.371 162.152 218.178 159.853 218.178 156.78C218.178 154.227 216.603 152.614 214.228 152.233V152.03C216.107 151.484 217.479 150.023 217.492 147.813C217.504 145.248 215.422 142.962 211.802 142.962C208.094 142.962 205.82 145.159 205.592 148.144H207.814C208.005 146.086 209.44 144.956 211.65 144.956C213.859 144.956 215.168 146.353 215.168 148.067C215.168 149.972 213.669 151.319 211.561 151.319H209.389V153.274ZM227.703 162.139C232.186 162.139 234.751 158.532 234.751 152.233C234.751 145.997 231.805 142.962 227.855 142.962C224.096 142.962 221.429 145.591 221.429 149.274C221.429 152.83 223.956 155.408 227.449 155.408C229.633 155.408 231.424 154.367 232.326 152.589H232.529C232.402 157.465 230.713 160.107 227.728 160.107C225.925 160.107 224.528 159.104 224.045 157.453H221.695C222.267 160.336 224.591 162.139 227.703 162.139ZM227.855 153.427C225.429 153.427 223.74 151.7 223.74 149.198C223.74 146.797 225.531 144.968 227.88 144.968C230.23 144.968 232.021 146.823 232.021 149.274C232.021 151.7 230.281 153.427 227.855 153.427ZM242.282 153.274H244.556C247.134 153.274 248.721 154.595 248.721 156.716C248.721 158.774 247.007 160.158 244.594 160.158C242.232 160.158 240.581 158.926 240.377 156.996H238.168C238.333 160.107 240.898 162.152 244.619 162.152C248.264 162.152 251.071 159.853 251.071 156.78C251.071 154.227 249.496 152.614 247.121 152.233V152.03C249.001 151.484 250.373 150.023 250.385 147.813C250.398 145.248 248.315 142.962 244.696 142.962C240.987 142.962 238.714 145.159 238.485 148.144H240.708C240.898 146.086 242.333 144.956 244.543 144.956C246.753 144.956 248.061 146.353 248.061 148.067C248.061 149.972 246.562 151.319 244.454 151.319H242.282V153.274ZM263.111 161.72H265.346V157.923H267.95V155.878H265.346V143.394H262.031C259.466 147.216 256.659 151.687 254.183 155.84V157.923H263.111V161.72ZM256.519 155.738C258.513 152.373 260.914 148.588 262.971 145.515H263.124V155.891H256.519V155.738Z" fill="black"/>
<g clip-path="url(#clip0)">
<path d="M273.595 221.163L276.757 217.188H273.354L271.144 221.163H273.595ZM268.058 222.954H264.781V234.968C264.781 238.969 267.677 241.737 272.312 241.737C276.948 241.737 279.843 238.969 279.843 234.968V222.954H276.567V234.676C276.567 237.178 275.03 238.88 272.312 238.88C269.594 238.88 268.058 237.178 268.058 234.676V222.954ZM283.629 241.28H286.778V222.027H283.629V241.28ZM291.249 223.995V227.488H289.052V229.939H291.249V237.597C291.249 240.277 292.519 241.344 295.707 241.344C296.317 241.344 296.901 241.293 297.358 241.204V238.791C296.977 238.829 296.736 238.854 296.291 238.854C294.97 238.854 294.386 238.232 294.386 236.848V229.939H297.358V227.488H294.386V223.995H291.249ZM301.588 225.075C302.629 225.075 303.48 224.249 303.48 223.208C303.48 222.179 302.629 221.341 301.588 221.341C300.559 221.341 299.708 222.179 299.708 223.208C299.708 224.249 300.559 225.075 301.588 225.075ZM300.026 241.28H303.163V227.399H300.026V241.28ZM306.554 241.28H309.704V232.834C309.704 231.107 310.859 229.799 312.422 229.799C313.971 229.799 314.936 230.739 314.936 232.276V241.28H317.997V232.606C317.997 231.018 319.076 229.799 320.715 229.799C322.404 229.799 323.255 230.701 323.255 232.504V241.28H326.392V231.729C326.392 228.847 324.715 227.132 321.934 227.132C320.004 227.132 318.403 228.123 317.718 229.634H317.502C316.917 228.097 315.584 227.132 313.666 227.132C311.825 227.132 310.402 228.072 309.805 229.634H309.589V227.399H306.554V241.28ZM335.6 241.559C339.753 241.559 342.28 238.842 342.28 234.333C342.28 229.85 339.74 227.132 335.6 227.132C331.472 227.132 328.92 229.863 328.92 234.333C328.92 238.842 331.434 241.559 335.6 241.559ZM335.6 238.981C333.403 238.981 332.145 237.279 332.145 234.346C332.145 231.412 333.403 229.71 335.6 229.71C337.784 229.71 339.042 231.412 339.042 234.346C339.042 237.279 337.797 238.981 335.6 238.981ZM351.032 231.361C351.032 233.444 352.289 234.663 354.956 235.273L357.42 235.844C358.741 236.149 359.338 236.657 359.338 237.445C359.338 238.499 358.233 239.223 356.645 239.223C355.07 239.223 354.092 238.588 353.788 237.559H350.676C350.917 240.061 353.102 241.559 356.569 241.559C360.036 241.559 362.487 239.794 362.487 237.14C362.487 235.095 361.255 233.965 358.601 233.355L356.15 232.809C354.753 232.479 354.092 231.983 354.092 231.196C354.092 230.167 355.172 229.469 356.607 229.469C358.08 229.469 359.007 230.104 359.236 231.082H362.195C361.967 228.58 359.896 227.132 356.594 227.132C353.318 227.132 351.032 228.872 351.032 231.361ZM368.978 241.509C370.794 241.509 372.318 240.721 373.092 239.375H373.308V241.28H376.344V231.793C376.344 228.859 374.337 227.132 370.768 227.132C367.466 227.132 365.167 228.681 364.913 231.107H367.885C368.177 230.155 369.168 229.634 370.616 229.634C372.318 229.634 373.232 230.409 373.232 231.793V232.987L369.651 233.203C366.272 233.393 364.38 234.854 364.38 237.343C364.38 239.883 366.298 241.509 368.978 241.509ZM369.905 239.083C368.508 239.083 367.504 238.384 367.504 237.191C367.504 236.035 368.33 235.387 370.095 235.273L373.232 235.057V236.187C373.232 237.838 371.81 239.083 369.905 239.083ZM379.748 241.28H382.897V222.027H379.748V241.28ZM391.394 241.509C393.325 241.509 394.925 240.607 395.712 239.083H395.928V241.28H398.976V222.027H395.827V229.609H395.611C394.874 228.085 393.299 227.17 391.394 227.17C387.889 227.17 385.679 229.939 385.679 234.333C385.679 238.74 387.876 241.509 391.394 241.509ZM392.372 229.799C394.531 229.799 395.865 231.539 395.865 234.346C395.865 237.165 394.544 238.892 392.372 238.892C390.213 238.892 388.905 237.191 388.905 234.346C388.905 231.514 390.226 229.799 392.372 229.799ZM408.426 241.559C412.579 241.559 415.106 238.842 415.106 234.333C415.106 229.85 412.566 227.132 408.426 227.132C404.298 227.132 401.746 229.863 401.746 234.333C401.746 238.842 404.26 241.559 408.426 241.559ZM408.426 238.981C406.229 238.981 404.971 237.279 404.971 234.346C404.971 231.412 406.229 229.71 408.426 229.71C410.61 229.71 411.868 231.412 411.868 234.346C411.868 237.279 410.623 238.981 408.426 238.981ZM424.175 241.28H427.325V233.215C427.325 231.26 428.747 229.99 430.792 229.99C431.325 229.99 432.164 230.078 432.405 230.167V227.297C432.113 227.221 431.554 227.17 431.097 227.17C429.306 227.17 427.807 228.186 427.426 229.558H427.21V227.399H424.175V241.28ZM443.175 237.483C442.718 238.524 441.638 239.108 440.076 239.108C438.006 239.108 436.673 237.635 436.596 235.286V235.12H446.299V234.117C446.299 229.761 443.924 227.132 439.962 227.132C435.936 227.132 433.434 229.939 433.434 234.397C433.434 238.842 435.898 241.559 439.987 241.559C443.264 241.559 445.588 239.985 446.16 237.483H443.175ZM439.949 229.583C441.842 229.583 443.086 230.917 443.15 233.025H436.609C436.749 230.942 438.07 229.583 439.949 229.583ZM454.911 246.563C458.962 246.563 461.527 244.544 461.527 241.356V227.399H458.492V229.621H458.276C457.514 228.11 455.863 227.17 453.971 227.17C450.427 227.17 448.23 229.939 448.23 234.193C448.23 238.359 450.415 241.077 453.92 241.077C455.85 241.077 457.362 240.264 458.162 238.765H458.378V241.407C458.378 243.172 457.12 244.214 454.961 244.214C453.234 244.214 452.117 243.591 451.913 242.614H448.751C449.005 245.001 451.342 246.563 454.911 246.563ZM454.911 238.575C452.713 238.575 451.469 236.873 451.469 234.181C451.469 231.501 452.713 229.799 454.911 229.799C457.095 229.799 458.429 231.501 458.429 234.193C458.429 236.873 457.108 238.575 454.911 238.575ZM466.481 225.075C467.522 225.075 468.373 224.249 468.373 223.208C468.373 222.179 467.522 221.341 466.481 221.341C465.452 221.341 464.601 222.179 464.601 223.208C464.601 224.249 465.452 225.075 466.481 225.075ZM464.919 241.28H468.056V227.399H464.919V241.28ZM471.13 231.361C471.13 233.444 472.387 234.663 475.054 235.273L477.518 235.844C478.839 236.149 479.436 236.657 479.436 237.445C479.436 238.499 478.331 239.223 476.743 239.223C475.168 239.223 474.191 238.588 473.886 237.559H470.774C471.015 240.061 473.2 241.559 476.667 241.559C480.134 241.559 482.585 239.794 482.585 237.14C482.585 235.095 481.353 233.965 478.699 233.355L476.248 232.809C474.851 232.479 474.191 231.983 474.191 231.196C474.191 230.167 475.27 229.469 476.705 229.469C478.178 229.469 479.105 230.104 479.334 231.082H482.293C482.065 228.58 479.995 227.132 476.692 227.132C473.416 227.132 471.13 228.872 471.13 231.361ZM486.155 223.995V227.488H483.957V229.939H486.155V237.597C486.155 240.277 487.425 241.344 490.612 241.344C491.222 241.344 491.806 241.293 492.263 241.204V238.791C491.882 238.829 491.641 238.854 491.197 238.854C489.876 238.854 489.292 238.232 489.292 236.848V229.939H492.263V227.488H489.292V223.995H486.155ZM494.893 241.28H498.042V233.215C498.042 231.26 499.465 229.99 501.51 229.99C502.043 229.99 502.881 230.078 503.123 230.167V227.297C502.83 227.221 502.272 227.17 501.814 227.17C500.024 227.17 498.525 228.186 498.144 229.558H497.928V227.399H494.893V241.28ZM508.838 241.509C510.654 241.509 512.178 240.721 512.953 239.375H513.169V241.28H516.204V231.793C516.204 228.859 514.198 227.132 510.629 227.132C507.327 227.132 505.028 228.681 504.774 231.107H507.746C508.038 230.155 509.029 229.634 510.477 229.634C512.178 229.634 513.093 230.409 513.093 231.793V232.987L509.511 233.203C506.133 233.393 504.241 234.854 504.241 237.343C504.241 239.883 506.158 241.509 508.838 241.509ZM509.765 239.083C508.368 239.083 507.365 238.384 507.365 237.191C507.365 236.035 508.19 235.387 509.956 235.273L513.093 235.057V236.187C513.093 237.838 511.67 239.083 509.765 239.083ZM524.511 241.509C526.441 241.509 528.041 240.607 528.829 239.083H529.045V241.28H532.093V222.027H528.943V229.609H528.727C527.991 228.085 526.416 227.17 524.511 227.17C521.005 227.17 518.796 229.939 518.796 234.333C518.796 238.74 520.993 241.509 524.511 241.509ZM525.489 229.799C527.648 229.799 528.981 231.539 528.981 234.346C528.981 237.165 527.66 238.892 525.489 238.892C523.33 238.892 522.021 237.191 522.021 234.346C522.021 231.514 523.342 229.799 525.489 229.799ZM541.542 241.559C545.695 241.559 548.222 238.842 548.222 234.333C548.222 229.85 545.682 227.132 541.542 227.132C537.415 227.132 534.862 229.863 534.862 234.333C534.862 238.842 537.377 241.559 541.542 241.559ZM541.542 238.981C539.345 238.981 538.088 237.279 538.088 234.346C538.088 231.412 539.345 229.71 541.542 229.71C543.727 229.71 544.984 231.412 544.984 234.346C544.984 237.279 543.739 238.981 541.542 238.981Z" fill="#767679"/>
<path d="M302.961 338.93H307.342V332.834C318.163 332.11 325.897 326.319 325.897 316.756C325.897 308.412 320.449 304.221 310.047 301.858L307.342 301.287V287.837C311.61 288.447 314.467 290.809 315.001 294.924H325.173C324.792 285.932 317.934 279.989 307.342 279.227V273.016H302.961V279.189C292.483 279.836 284.977 285.742 284.977 294.848C284.977 303.078 290.464 307.535 300.408 309.783L302.961 310.393V324.3C297.779 323.728 295.036 321.023 294.426 317.137H284.215C284.482 326.662 292.255 332.263 302.961 332.872V338.93ZM295.645 293.857C295.645 290.809 298.16 288.333 302.961 287.761V300.258C297.817 298.887 295.645 296.905 295.645 293.857ZM315.267 317.937C315.267 321.404 312.638 323.766 307.342 324.3V311.384C313.248 312.869 315.267 314.584 315.267 317.937ZM330.552 295.229H341.22C341.22 289.857 344.725 286.085 350.326 286.085C355.698 286.085 358.822 289.666 358.822 294.162C358.822 297.972 357.336 300.487 350.478 307.154L331.199 325.786V333.52H370.862V324.262H346.706V323.576L358.137 312.679C367.281 303.992 370.1 299.572 370.1 293.133C370.1 283.875 362.632 277.131 350.974 277.131C338.934 277.131 330.552 284.523 330.552 295.229ZM382.565 334.473C386.68 334.473 389.309 331.729 389.309 327.995C389.309 324.262 386.68 321.556 382.565 321.556C378.488 321.556 375.821 324.262 375.821 327.995C375.821 331.729 378.488 334.473 382.565 334.473ZM414.004 334.93C426.387 334.93 434.655 327.005 434.655 315.346C434.655 304.259 427.073 297.286 417.586 297.286C411.871 297.286 407.832 299.306 405.546 302.735H404.86L406.27 287.685H431.683V278.541H397.354L394.42 310.774H404.708C406.422 307.497 409.775 305.402 414.118 305.402C419.719 305.402 423.682 309.44 423.682 315.498C423.682 321.709 419.681 325.786 413.89 325.786C408.784 325.786 404.86 322.738 404.25 317.937H393.62C393.963 327.767 402.079 334.93 414.004 334.93ZM460.15 334.93C473.371 334.93 482.401 328.376 482.401 318.737C482.401 311.688 477.562 306.126 470.247 304.792V304.106C476.267 302.697 480.153 297.972 480.153 292.105C480.153 283.38 471.847 277.131 460.188 277.131C448.491 277.131 440.185 283.38 440.185 292.105C440.185 297.972 444.11 302.697 450.092 304.106V304.792C442.738 306.392 437.976 311.917 437.976 318.813C437.976 328.415 446.929 334.93 460.15 334.93ZM460.15 300.868C455.083 300.868 451.539 297.705 451.539 293.171C451.539 288.599 455.045 285.399 460.15 285.399C465.256 285.399 468.799 288.599 468.799 293.171C468.799 297.705 465.256 300.868 460.15 300.868ZM460.15 326.471C454.13 326.471 449.939 322.928 449.939 317.823C449.939 312.679 454.13 309.136 460.15 309.136C466.208 309.136 470.399 312.679 470.399 317.823C470.399 322.928 466.208 326.471 460.15 326.471ZM507.363 334.93C520.965 334.93 529.194 324.185 529.194 305.973C529.194 287.723 520.85 277.131 507.363 277.131C493.837 277.131 485.531 287.723 485.531 305.935C485.531 324.185 493.761 334.93 507.363 334.93ZM507.363 325.824C501.076 325.824 497.19 319.118 497.19 305.935C497.19 292.867 501.114 286.237 507.363 286.237C513.649 286.237 517.536 292.829 517.536 305.935C517.536 319.118 513.687 325.824 507.363 325.824Z" fill="black"/>
</g>
<path d="M146.69 410.24V396.842H151.554V395.148H139.944V396.842H144.808V410.24H146.69ZM161.783 398.965H159.984V405.638C159.984 407.615 158.896 408.797 156.909 408.797C155.11 408.797 154.357 407.855 154.357 405.826V398.965H152.558V406.266C152.558 408.933 153.876 410.439 156.407 410.439C158.133 410.439 159.335 409.728 159.9 408.472H160.067V410.24H161.783V398.965ZM170.955 402.051C170.955 403.682 171.917 404.592 174.03 405.105L175.965 405.575C177.168 405.868 177.754 406.391 177.754 407.165C177.754 408.201 176.666 408.922 175.149 408.922C173.706 408.922 172.806 408.316 172.503 407.364H170.652C170.851 409.236 172.576 410.439 175.087 410.439C177.649 410.439 179.605 409.048 179.605 407.029C179.605 405.408 178.58 404.488 176.457 403.975L174.72 403.557C173.392 403.233 172.765 402.751 172.765 401.977C172.765 400.973 173.811 400.294 175.149 400.294C176.509 400.294 177.387 400.89 177.628 401.789H179.406C179.166 399.938 177.523 398.767 175.16 398.767C172.765 398.767 170.955 400.178 170.955 402.051ZM185.566 410.439C187.073 410.439 188.307 409.78 189.039 408.577H189.206V410.24H190.921V402.521C190.921 400.178 189.384 398.767 186.633 398.767C184.228 398.767 182.45 399.959 182.209 401.768H184.029C184.28 400.879 185.221 400.367 186.57 400.367C188.254 400.367 189.122 401.13 189.122 402.521V403.546L185.87 403.745C183.245 403.902 181.759 405.063 181.759 407.081C181.759 409.142 183.38 410.439 185.566 410.439ZM185.901 408.859C184.594 408.859 183.621 408.19 183.621 407.04C183.621 405.91 184.374 405.314 186.089 405.199L189.122 405V406.036C189.122 407.646 187.752 408.859 185.901 408.859ZM194.352 410.24H196.151V394.489H194.352V410.24ZM203.817 410.439C205.376 410.439 206.714 409.696 207.426 408.441H207.593V410.24H209.308V394.489H207.509V400.743H207.352C206.714 399.509 205.386 398.767 203.817 398.767C200.952 398.767 199.079 401.067 199.079 404.603C199.079 408.148 200.931 410.439 203.817 410.439ZM204.236 400.388C206.275 400.388 207.551 402.019 207.551 404.603C207.551 407.207 206.286 408.818 204.236 408.818C202.175 408.818 200.941 407.238 200.941 404.603C200.941 401.977 202.186 400.388 204.236 400.388ZM217.435 410.439C220.646 410.439 222.633 408.221 222.633 404.603C222.633 400.973 220.646 398.767 217.435 398.767C214.224 398.767 212.237 400.973 212.237 404.603C212.237 408.221 214.224 410.439 217.435 410.439ZM217.435 408.818C215.301 408.818 214.099 407.27 214.099 404.603C214.099 401.925 215.301 400.388 217.435 400.388C219.569 400.388 220.771 401.925 220.771 404.603C220.771 407.27 219.569 408.818 217.435 408.818ZM236.993 398.767C235.456 398.767 234.107 399.551 233.385 400.848H233.218V398.965H231.502V414.005H233.301V408.546H233.469C234.086 409.738 235.383 410.439 236.993 410.439C239.859 410.439 241.731 408.127 241.731 404.603C241.731 401.057 239.869 398.767 236.993 398.767ZM236.564 408.818C234.535 408.818 233.249 407.186 233.249 404.603C233.249 402.009 234.535 400.388 236.575 400.388C238.635 400.388 239.869 401.967 239.869 404.603C239.869 407.238 238.635 408.818 236.564 408.818ZM249.188 410.439C252.399 410.439 254.387 408.221 254.387 404.603C254.387 400.973 252.399 398.767 249.188 398.767C245.978 398.767 243.99 400.973 243.99 404.603C243.99 408.221 245.978 410.439 249.188 410.439ZM249.188 408.818C247.055 408.818 245.852 407.27 245.852 404.603C245.852 401.925 247.055 400.388 249.188 400.388C251.322 400.388 252.525 401.925 252.525 404.603C252.525 407.27 251.322 408.818 249.188 408.818ZM261.384 410.439C262.942 410.439 264.281 409.696 264.992 408.441H265.159V410.24H266.875V394.489H265.076V400.743H264.919C264.281 399.509 262.952 398.767 261.384 398.767C258.518 398.767 256.646 401.067 256.646 404.603C256.646 408.148 258.497 410.439 261.384 410.439ZM261.802 400.388C263.841 400.388 265.117 402.019 265.117 404.603C265.117 407.207 263.852 408.818 261.802 408.818C259.742 408.818 258.507 407.238 258.507 404.603C258.507 401.977 259.752 400.388 261.802 400.388ZM270.368 410.24H272.167V403.253C272.167 401.664 273.411 400.513 275.127 400.513C275.482 400.513 276.131 400.576 276.277 400.618V398.819C276.047 398.787 275.671 398.767 275.378 398.767C273.882 398.767 272.585 399.54 272.25 400.639H272.083V398.965H270.368V410.24ZM280.283 397.396L282.699 393.84H280.544L278.693 397.396H280.283ZM278.568 410.24H280.367V398.965H278.568V410.24ZM286.935 410.439C288.441 410.439 289.675 409.78 290.407 408.577H290.575V410.24H292.29V402.521C292.29 400.178 290.752 398.767 288.002 398.767C285.596 398.767 283.818 399.959 283.578 401.768H285.397C285.648 400.879 286.59 400.367 287.939 400.367C289.623 400.367 290.491 401.13 290.491 402.521V403.546L287.238 403.745C284.613 403.902 283.128 405.063 283.128 407.081C283.128 409.142 284.749 410.439 286.935 410.439ZM287.27 408.859C285.962 408.859 284.99 408.19 284.99 407.04C284.99 405.91 285.743 405.314 287.458 405.199L290.491 405V406.036C290.491 407.646 289.121 408.859 287.27 408.859ZM302.414 396.047V398.965H300.594V400.471H302.414V407.312C302.414 409.466 303.345 410.324 305.667 410.324C306.023 410.324 306.368 410.282 306.723 410.219V408.703C306.389 408.734 306.211 408.744 305.887 408.744C304.715 408.744 304.213 408.18 304.213 406.851V400.471H306.723V398.965H304.213V396.047H302.414ZM316.743 407.322C316.272 408.316 315.289 408.849 313.835 408.849C311.921 408.849 310.677 407.437 310.583 405.209V405.126H318.688V404.435C318.688 400.932 316.837 398.767 313.794 398.767C310.698 398.767 308.711 401.067 308.711 404.613C308.711 408.18 310.666 410.439 313.794 410.439C316.262 410.439 318.019 409.246 318.542 407.322H316.743ZM313.773 400.356C315.561 400.356 316.753 401.674 316.795 403.672H310.583C310.719 401.674 311.974 400.356 313.773 400.356ZM321.512 410.24H323.311V403.567C323.311 401.59 324.472 400.388 326.271 400.388C328.07 400.388 328.928 401.35 328.928 403.379V410.24H330.727V402.94C330.727 400.262 329.315 398.767 326.784 398.767C325.058 398.767 323.96 399.499 323.395 400.743H323.228V398.965H321.512V410.24ZM341.489 407.322C341.018 408.316 340.035 408.849 338.581 408.849C336.667 408.849 335.423 407.437 335.329 405.209V405.126H343.434V404.435C343.434 400.932 341.583 398.767 338.54 398.767C335.444 398.767 333.456 401.067 333.456 404.613C333.456 408.18 335.412 410.439 338.54 410.439C341.008 410.439 342.765 409.246 343.288 407.322H341.489ZM338.519 400.356C340.307 400.356 341.499 401.674 341.541 403.672H335.329C335.465 401.674 336.72 400.356 338.519 400.356ZM346.258 410.24H348.057V403.253C348.057 401.664 349.302 400.513 351.017 400.513C351.373 400.513 352.021 400.576 352.168 400.618V398.819C351.937 398.787 351.561 398.767 351.268 398.767C349.772 398.767 348.476 399.54 348.141 400.639H347.974V398.965H346.258V410.24ZM363.599 410.439C365.105 410.439 366.34 409.78 367.072 408.577H367.239V410.24H368.954V402.521C368.954 400.178 367.417 398.767 364.666 398.767C362.26 398.767 360.482 399.959 360.242 401.768H362.062C362.313 400.879 363.254 400.367 364.603 400.367C366.287 400.367 367.155 401.13 367.155 402.521V403.546L363.903 403.745C361.277 403.902 359.792 405.063 359.792 407.081C359.792 409.142 361.413 410.439 363.599 410.439ZM363.934 408.859C362.627 408.859 361.654 408.19 361.654 407.04C361.654 405.91 362.407 405.314 364.122 405.199L367.155 405V406.036C367.155 407.646 365.785 408.859 363.934 408.859ZM372.385 410.24H374.184V394.489H372.385V410.24ZM382.321 414.57C385.396 414.57 387.341 412.959 387.341 410.439V398.965H385.626V400.754H385.459C384.81 399.54 383.419 398.767 381.84 398.767C378.943 398.767 377.112 401.057 377.112 404.435C377.112 407.814 378.922 410.073 381.84 410.073C383.388 410.073 384.664 409.372 385.375 408.127H385.542V410.345C385.542 412.008 384.339 413.001 382.321 413.001C380.7 413.001 379.696 412.405 379.497 411.485H377.593C377.865 413.346 379.601 414.57 382.321 414.57ZM382.237 408.483C380.145 408.483 378.974 406.893 378.974 404.435C378.974 401.977 380.145 400.388 382.237 400.388C384.318 400.388 385.584 401.977 385.584 404.435C385.584 406.893 384.329 408.483 382.237 408.483ZM399.85 398.965H398.051V405.638C398.051 407.615 396.963 408.797 394.976 408.797C393.177 408.797 392.424 407.855 392.424 405.826V398.965H390.625V406.266C390.625 408.933 391.943 410.439 394.474 410.439C396.2 410.439 397.403 409.728 397.967 408.472H398.135V410.24H399.85V398.965ZM403.239 410.24H405.038V403.567C405.038 401.59 406.199 400.388 407.998 400.388C409.797 400.388 410.654 401.35 410.654 403.379V410.24H412.453V402.94C412.453 400.262 411.041 398.767 408.51 398.767C406.784 398.767 405.686 399.499 405.121 400.743H404.954V398.965H403.239V410.24ZM418.885 410.439C420.392 410.439 421.626 409.78 422.358 408.577H422.525V410.24H424.24V402.521C424.24 400.178 422.703 398.767 419.952 398.767C417.547 398.767 415.769 399.959 415.528 401.768H417.348C417.599 400.879 418.54 400.367 419.889 400.367C421.573 400.367 422.441 401.13 422.441 402.521V403.546L419.189 403.745C416.564 403.902 415.078 405.063 415.078 407.081C415.078 409.142 416.699 410.439 418.885 410.439ZM419.22 408.859C417.913 408.859 416.94 408.19 416.94 407.04C416.94 405.91 417.693 405.314 419.408 405.199L422.441 405V406.036C422.441 407.646 421.071 408.859 419.22 408.859ZM427.305 402.051C427.305 403.682 428.267 404.592 430.38 405.105L432.315 405.575C433.518 405.868 434.103 406.391 434.103 407.165C434.103 408.201 433.016 408.922 431.499 408.922C430.056 408.922 429.156 408.316 428.853 407.364H427.002C427.2 409.236 428.926 410.439 431.436 410.439C433.999 410.439 435.955 409.048 435.955 407.029C435.955 405.408 434.93 404.488 432.806 403.975L431.07 403.557C429.742 403.233 429.114 402.751 429.114 401.977C429.114 400.973 430.16 400.294 431.499 400.294C432.859 400.294 433.737 400.89 433.978 401.789H435.756C435.515 399.938 433.873 398.767 431.509 398.767C429.114 398.767 427.305 400.178 427.305 402.051ZM444.928 410.24H446.727V403.567C446.727 401.664 447.836 400.388 449.854 400.388C451.559 400.388 452.459 401.381 452.459 403.379V410.24H454.258V402.94C454.258 400.294 452.752 398.767 450.367 398.767C448.641 398.767 447.459 399.499 446.895 400.743H446.727V394.489H444.928V410.24ZM462.175 410.439C465.386 410.439 467.373 408.221 467.373 404.603C467.373 400.973 465.386 398.767 462.175 398.767C458.964 398.767 456.977 400.973 456.977 404.603C456.977 408.221 458.964 410.439 462.175 410.439ZM462.175 408.818C460.042 408.818 458.839 407.27 458.839 404.603C458.839 401.925 460.042 400.388 462.175 400.388C464.309 400.388 465.512 401.925 465.512 404.603C465.512 407.27 464.309 408.818 462.175 408.818ZM470.197 410.24H471.996V403.253C471.996 401.664 473.241 400.513 474.956 400.513C475.312 400.513 475.96 400.576 476.107 400.618V398.819C475.876 398.787 475.5 398.767 475.207 398.767C473.711 398.767 472.415 399.54 472.08 400.639H471.912V398.965H470.197V410.24ZM481.493 410.439C482.999 410.439 484.233 409.78 484.965 408.577H485.133V410.24H486.848V402.521C486.848 400.178 485.31 398.767 482.56 398.767C480.154 398.767 478.376 399.959 478.136 401.768H479.955C480.206 400.879 481.148 400.367 482.497 400.367C484.181 400.367 485.049 401.13 485.049 402.521V403.546L481.796 403.745C479.171 403.902 477.686 405.063 477.686 407.081C477.686 409.142 479.307 410.439 481.493 410.439ZM481.828 408.859C480.52 408.859 479.548 408.19 479.548 407.04C479.548 405.91 480.301 405.314 482.016 405.199L485.049 405V406.036C485.049 407.646 483.679 408.859 481.828 408.859ZM489.912 402.051C489.912 403.682 490.875 404.592 492.987 405.105L494.922 405.575C496.125 405.868 496.711 406.391 496.711 407.165C496.711 408.201 495.623 408.922 494.106 408.922C492.663 408.922 491.764 408.316 491.46 407.364H489.609C489.808 409.236 491.534 410.439 494.044 410.439C496.606 410.439 498.562 409.048 498.562 407.029C498.562 405.408 497.537 404.488 495.414 403.975L493.678 403.557C492.349 403.233 491.722 402.751 491.722 401.977C491.722 400.973 492.768 400.294 494.106 400.294C495.466 400.294 496.345 400.89 496.585 401.789H498.363C498.123 399.938 496.481 398.767 494.117 398.767C491.722 398.767 489.912 400.178 489.912 402.051ZM511.604 410.439C513.163 410.439 514.501 409.696 515.213 408.441H515.38V410.24H517.095V394.489H515.296V400.743H515.139C514.501 399.509 513.173 398.767 511.604 398.767C508.739 398.767 506.866 401.067 506.866 404.603C506.866 408.148 508.718 410.439 511.604 410.439ZM512.023 400.388C514.062 400.388 515.338 402.019 515.338 404.603C515.338 407.207 514.073 408.818 512.023 408.818C509.962 408.818 508.728 407.238 508.728 404.603C508.728 401.977 509.973 400.388 512.023 400.388ZM528.056 407.322C527.586 408.316 526.603 408.849 525.149 408.849C523.235 408.849 521.99 407.437 521.896 405.209V405.126H530.002V404.435C530.002 400.932 528.15 398.767 525.107 398.767C522.011 398.767 520.024 401.067 520.024 404.613C520.024 408.18 521.98 410.439 525.107 410.439C527.575 410.439 529.332 409.246 529.855 407.322H528.056ZM525.086 400.356C526.874 400.356 528.067 401.674 528.109 403.672H521.896C522.032 401.674 523.287 400.356 525.086 400.356ZM543.044 410.439C544.602 410.439 545.941 409.696 546.652 408.441H546.82V410.24H548.535V394.489H546.736V400.743H546.579C545.941 399.509 544.613 398.767 543.044 398.767C540.178 398.767 538.306 401.067 538.306 404.603C538.306 408.148 540.157 410.439 543.044 410.439ZM543.462 400.388C545.502 400.388 546.778 402.019 546.778 404.603C546.778 407.207 545.512 408.818 543.462 408.818C541.402 408.818 540.168 407.238 540.168 404.603C540.168 401.977 541.412 400.388 543.462 400.388ZM559.496 407.322C559.025 408.316 558.042 408.849 556.588 408.849C554.674 408.849 553.43 407.437 553.336 405.209V405.126H561.441V404.435C561.441 400.932 559.59 398.767 556.547 398.767C553.451 398.767 551.464 401.067 551.464 404.613C551.464 408.18 553.419 410.439 556.547 410.439C559.015 410.439 560.772 409.246 561.295 407.322H559.496ZM556.526 400.356C558.314 400.356 559.506 401.674 559.548 403.672H553.336C553.472 401.674 554.727 400.356 556.526 400.356ZM564.004 402.051C564.004 403.682 564.966 404.592 567.079 405.105L569.014 405.575C570.216 405.868 570.802 406.391 570.802 407.165C570.802 408.201 569.714 408.922 568.198 408.922C566.755 408.922 565.855 408.316 565.552 407.364H563.701C563.899 409.236 565.625 410.439 568.135 410.439C570.698 410.439 572.653 409.048 572.653 407.029C572.653 405.408 571.628 404.488 569.505 403.975L567.769 403.557C566.441 403.233 565.813 402.751 565.813 401.977C565.813 400.973 566.859 400.294 568.198 400.294C569.558 400.294 570.436 400.89 570.677 401.789H572.455C572.214 399.938 570.572 398.767 568.208 398.767C565.813 398.767 564.004 400.178 564.004 402.051ZM576.23 410.24H578.029V400.471H580.613V398.965H578.029V397.762C578.029 396.528 578.573 395.901 579.87 395.901C580.194 395.901 580.498 395.911 580.717 395.953V394.489C580.341 394.416 579.943 394.384 579.504 394.384C577.36 394.384 576.23 395.461 576.23 397.71V398.965H574.358V400.471H576.23V410.24ZM586.062 410.439C587.568 410.439 588.802 409.78 589.534 408.577H589.702V410.24H591.417V402.521C591.417 400.178 589.879 398.767 587.129 398.767C584.723 398.767 582.945 399.959 582.705 401.768H584.524C584.775 400.879 585.717 400.367 587.066 400.367C588.75 400.367 589.618 401.13 589.618 402.521V403.546L586.365 403.745C583.74 403.902 582.255 405.063 582.255 407.081C582.255 409.142 583.876 410.439 586.062 410.439ZM586.397 408.859C585.089 408.859 584.116 408.19 584.116 407.04C584.116 405.91 584.87 405.314 586.585 405.199L589.618 405V406.036C589.618 407.646 588.248 408.859 586.397 408.859ZM594.481 402.051C594.481 403.682 595.444 404.592 597.556 405.105L599.491 405.575C600.694 405.868 601.28 406.391 601.28 407.165C601.28 408.201 600.192 408.922 598.675 408.922C597.232 408.922 596.333 408.316 596.029 407.364H594.178C594.377 409.236 596.102 410.439 598.613 410.439C601.175 410.439 603.131 409.048 603.131 407.029C603.131 405.408 602.106 404.488 599.983 403.975L598.247 403.557C596.918 403.233 596.291 402.751 596.291 401.977C596.291 400.973 597.337 400.294 598.675 400.294C600.035 400.294 600.914 400.89 601.154 401.789H602.932C602.692 399.938 601.05 398.767 598.686 398.767C596.291 398.767 594.481 400.178 594.481 402.051ZM613.423 407.322C612.952 408.316 611.969 408.849 610.515 408.849C608.601 408.849 607.356 407.437 607.262 405.209V405.126H615.368V404.435C615.368 400.932 613.517 398.767 610.473 398.767C607.377 398.767 605.39 401.067 605.39 404.613C605.39 408.18 607.346 410.439 610.473 410.439C612.941 410.439 614.699 409.246 615.221 407.322H613.423ZM610.452 400.356C612.241 400.356 613.433 401.674 613.475 403.672H607.262C607.398 401.674 608.653 400.356 610.452 400.356ZM619.677 410.345C620.43 410.345 621.037 409.728 621.037 408.985C621.037 408.232 620.43 407.625 619.677 407.625C618.934 407.625 618.317 408.232 618.317 408.985C618.317 409.728 618.934 410.345 619.677 410.345ZM640.177 408.546H632.709V403.358H639.79V401.685H632.709V396.842H640.177V395.148H630.826V410.24H640.177V408.546ZM643.095 402.051C643.095 403.682 644.057 404.592 646.17 405.105L648.105 405.575C649.307 405.868 649.893 406.391 649.893 407.165C649.893 408.201 648.805 408.922 647.289 408.922C645.845 408.922 644.946 408.316 644.643 407.364H642.791C642.99 409.236 644.716 410.439 647.226 410.439C649.788 410.439 651.744 409.048 651.744 407.029C651.744 405.408 650.719 404.488 648.596 403.975L646.86 403.557C645.532 403.233 644.904 402.751 644.904 401.977C644.904 400.973 645.95 400.294 647.289 400.294C648.648 400.294 649.527 400.89 649.768 401.789H651.546C651.305 399.938 649.663 398.767 647.299 398.767C644.904 398.767 643.095 400.178 643.095 402.051ZM655.217 396.047V398.965H653.397V400.471H655.217V407.312C655.217 409.466 656.147 410.324 658.469 410.324C658.825 410.324 659.17 410.282 659.526 410.219V408.703C659.191 408.734 659.013 408.744 658.689 408.744C657.518 408.744 657.016 408.18 657.016 406.851V400.471H659.526V398.965H657.016V396.047H655.217ZM666.711 410.439C669.922 410.439 671.909 408.221 671.909 404.603C671.909 400.973 669.922 398.767 666.711 398.767C663.5 398.767 661.513 400.973 661.513 404.603C661.513 408.221 663.5 410.439 666.711 410.439ZM666.711 408.818C664.577 408.818 663.375 407.27 663.375 404.603C663.375 401.925 664.577 400.388 666.711 400.388C668.845 400.388 670.047 401.925 670.047 404.603C670.047 407.27 668.845 408.818 666.711 408.818ZM135.437 428.051C135.437 429.682 136.399 430.592 138.511 431.105L140.446 431.575C141.649 431.868 142.235 432.391 142.235 433.165C142.235 434.201 141.147 434.922 139.631 434.922C138.187 434.922 137.288 434.316 136.984 433.364H135.133C135.332 435.236 137.058 436.439 139.568 436.439C142.13 436.439 144.086 435.048 144.086 433.029C144.086 431.408 143.061 430.488 140.938 429.975L139.202 429.557C137.873 429.233 137.246 428.751 137.246 427.977C137.246 426.973 138.292 426.294 139.631 426.294C140.99 426.294 141.869 426.89 142.109 427.789H143.887C143.647 425.938 142.005 424.767 139.641 424.767C137.246 424.767 135.437 426.178 135.437 428.051ZM156.03 424.965H154.231V431.638C154.231 433.615 153.144 434.797 151.156 434.797C149.357 434.797 148.604 433.855 148.604 431.826V424.965H146.805V432.266C146.805 434.933 148.123 436.439 150.654 436.439C152.38 436.439 153.583 435.728 154.148 434.472H154.315V436.24H156.03V424.965ZM168.748 428.417C168.435 426.409 166.761 424.767 164.021 424.767C160.862 424.767 158.854 427.047 158.854 430.561C158.854 434.148 160.873 436.439 164.031 436.439C166.74 436.439 168.424 434.912 168.748 432.841H166.929C166.594 434.117 165.537 434.818 164.021 434.818C162.013 434.818 160.716 433.165 160.716 430.561C160.716 428.009 161.992 426.388 164.021 426.388C165.642 426.388 166.636 427.298 166.929 428.417H168.748ZM178.873 433.322C178.402 434.316 177.419 434.849 175.965 434.849C174.051 434.849 172.806 433.437 172.712 431.209V431.126H180.818V430.435C180.818 426.932 178.967 424.767 175.923 424.767C172.827 424.767 170.84 427.067 170.84 430.613C170.84 434.18 172.796 436.439 175.923 436.439C178.392 436.439 180.149 435.246 180.672 433.322H178.873ZM175.902 426.356C177.691 426.356 178.883 427.674 178.925 429.672H172.712C172.848 427.674 174.103 426.356 175.902 426.356ZM187.815 436.439C189.373 436.439 190.712 435.696 191.423 434.441H191.591V436.24H193.306V420.489H191.507V426.743H191.35C190.712 425.509 189.384 424.767 187.815 424.767C184.949 424.767 183.077 427.067 183.077 430.603C183.077 434.148 184.928 436.439 187.815 436.439ZM188.233 426.388C190.273 426.388 191.549 428.019 191.549 430.603C191.549 433.207 190.283 434.818 188.233 434.818C186.173 434.818 184.939 433.238 184.939 430.603C184.939 427.977 186.184 426.388 188.233 426.388ZM204.267 433.322C203.796 434.316 202.813 434.849 201.359 434.849C199.445 434.849 198.201 433.437 198.107 431.209V431.126H206.212V430.435C206.212 426.932 204.361 424.767 201.318 424.767C198.222 424.767 196.235 427.067 196.235 430.613C196.235 434.18 198.19 436.439 201.318 436.439C203.786 436.439 205.543 435.246 206.066 433.322H204.267ZM201.297 426.356C203.085 426.356 204.278 427.674 204.319 429.672H198.107C198.243 427.674 199.498 426.356 201.297 426.356ZM220.573 424.767C219.035 424.767 217.686 425.551 216.964 426.848H216.797V424.965H215.082V440.005H216.881V434.546H217.048C217.665 435.738 218.962 436.439 220.573 436.439C223.438 436.439 225.311 434.127 225.311 430.603C225.311 427.057 223.449 424.767 220.573 424.767ZM220.144 434.818C218.115 434.818 216.828 433.186 216.828 430.603C216.828 428.009 218.115 426.388 220.154 426.388C222.215 426.388 223.449 427.967 223.449 430.603C223.449 433.238 222.215 434.818 220.144 434.818ZM232.768 436.439C235.979 436.439 237.966 434.221 237.966 430.603C237.966 426.973 235.979 424.767 232.768 424.767C229.557 424.767 227.57 426.973 227.57 430.603C227.57 434.221 229.557 436.439 232.768 436.439ZM232.768 434.818C230.634 434.818 229.431 433.27 229.431 430.603C229.431 427.925 230.634 426.388 232.768 426.388C234.901 426.388 236.104 427.925 236.104 430.603C236.104 433.27 234.901 434.818 232.768 434.818ZM240.79 436.24H242.589V429.253C242.589 427.664 243.833 426.513 245.549 426.513C245.904 426.513 246.553 426.576 246.699 426.618V424.819C246.469 424.787 246.093 424.767 245.8 424.767C244.304 424.767 243.007 425.54 242.672 426.639H242.505V424.965H240.79V436.24ZM255.098 436.24H256.897V420.489H255.098V436.24ZM261.331 422.79C262.022 422.79 262.586 422.225 262.586 421.535C262.586 420.844 262.022 420.28 261.331 420.28C260.641 420.28 260.076 420.844 260.076 421.535C260.076 422.225 260.641 422.79 261.331 422.79ZM260.432 436.24H262.231V424.965H260.432V436.24ZM265.661 436.24H267.46V429.253C267.46 427.664 268.6 426.388 270.075 426.388C271.497 426.388 272.428 427.245 272.428 428.584V436.24H274.227V428.992C274.227 427.559 275.273 426.388 276.842 426.388C278.432 426.388 279.216 427.203 279.216 428.866V436.24H281.015V428.448C281.015 426.084 279.729 424.767 277.428 424.767C275.869 424.767 274.583 425.551 273.976 426.743H273.809C273.286 425.572 272.219 424.767 270.692 424.767C269.186 424.767 268.056 425.488 267.544 426.743H267.377V424.965H265.661V436.24ZM285.241 422.79C285.931 422.79 286.496 422.225 286.496 421.535C286.496 420.844 285.931 420.28 285.241 420.28C284.55 420.28 283.985 420.844 283.985 421.535C283.985 422.225 284.55 422.79 285.241 422.79ZM284.341 436.24H286.14V424.965H284.341V436.24ZM290.324 422.047V424.965H288.504V426.471H290.324V433.312C290.324 435.466 291.254 436.324 293.576 436.324C293.932 436.324 294.277 436.282 294.633 436.219V434.703C294.298 434.734 294.12 434.744 293.796 434.744C292.625 434.744 292.123 434.18 292.123 432.851V426.471H294.633V424.965H292.123V422.047H290.324ZM300.49 436.439C301.996 436.439 303.23 435.78 303.962 434.577H304.129V436.24H305.845V428.521C305.845 426.178 304.307 424.767 301.557 424.767C299.151 424.767 297.373 425.959 297.132 427.768H298.952C299.203 426.879 300.145 426.367 301.494 426.367C303.178 426.367 304.046 427.13 304.046 428.521V429.546L300.793 429.745C298.168 429.902 296.683 431.063 296.683 433.081C296.683 435.142 298.304 436.439 300.49 436.439ZM300.824 434.859C299.517 434.859 298.544 434.19 298.544 433.04C298.544 431.91 299.297 431.314 301.013 431.199L304.046 431V432.036C304.046 433.646 302.676 434.859 300.824 434.859ZM318.5 428.417C318.186 426.409 316.513 424.767 313.773 424.767C310.614 424.767 308.606 427.047 308.606 430.561C308.606 434.148 310.625 436.439 313.783 436.439C316.492 436.439 318.176 434.912 318.5 432.841H316.68C316.346 434.117 315.289 434.818 313.773 434.818C311.765 434.818 310.468 433.165 310.468 430.561C310.468 428.009 311.744 426.388 313.773 426.388C315.394 426.388 316.387 427.298 316.68 428.417H318.5ZM322.098 422.79C322.788 422.79 323.353 422.225 323.353 421.535C323.353 420.844 322.788 420.28 322.098 420.28C321.408 420.28 320.843 420.844 320.843 421.535C320.843 422.225 321.408 422.79 322.098 422.79ZM321.199 436.24H322.997V424.965H321.199V436.24ZM331.061 436.439C334.272 436.439 336.259 434.221 336.259 430.603C336.259 426.973 334.272 424.767 331.061 424.767C327.85 424.767 325.863 426.973 325.863 430.603C325.863 434.221 327.85 436.439 331.061 436.439ZM331.061 434.818C328.928 434.818 327.725 433.27 327.725 430.603C327.725 427.925 328.928 426.388 331.061 426.388C333.195 426.388 334.398 427.925 334.398 430.603C334.398 433.27 333.195 434.818 331.061 434.818ZM339.083 436.24H340.882V429.567C340.882 427.59 342.043 426.388 343.842 426.388C345.641 426.388 346.499 427.35 346.499 429.379V436.24H348.298V428.94C348.298 426.262 346.886 424.767 344.355 424.767C342.629 424.767 341.531 425.499 340.966 426.743H340.799V424.965H339.083V436.24ZM359.06 433.322C358.589 434.316 357.606 434.849 356.152 434.849C354.238 434.849 352.994 433.437 352.9 431.209V431.126H361.005V430.435C361.005 426.932 359.154 424.767 356.111 424.767C353.015 424.767 351.028 427.067 351.028 430.613C351.028 434.18 352.983 436.439 356.111 436.439C358.579 436.439 360.336 435.246 360.859 433.322H359.06ZM356.09 426.356C357.878 426.356 359.071 427.674 359.112 429.672H352.9C353.036 427.674 354.291 426.356 356.09 426.356ZM363.568 428.051C363.568 429.682 364.53 430.592 366.643 431.105L368.578 431.575C369.781 431.868 370.366 432.391 370.366 433.165C370.366 434.201 369.278 434.922 367.762 434.922C366.319 434.922 365.419 434.316 365.116 433.364H363.265C363.463 435.236 365.189 436.439 367.699 436.439C370.262 436.439 372.217 435.048 372.217 433.029C372.217 431.408 371.192 430.488 369.069 429.975L367.333 429.557C366.005 429.233 365.377 428.751 365.377 427.977C365.377 426.973 366.423 426.294 367.762 426.294C369.122 426.294 370 426.89 370.241 427.789H372.019C371.778 425.938 370.136 424.767 367.772 424.767C365.377 424.767 363.568 426.178 363.568 428.051ZM381.84 422.047V424.965H380.02V426.471H381.84V433.312C381.84 435.466 382.771 436.324 385.092 436.324C385.448 436.324 385.793 436.282 386.149 436.219V434.703C385.814 434.734 385.636 434.744 385.312 434.744C384.141 434.744 383.639 434.18 383.639 432.851V426.471H386.149V424.965H383.639V422.047H381.84ZM396.169 433.322C395.698 434.316 394.715 434.849 393.261 434.849C391.347 434.849 390.102 433.437 390.008 431.209V431.126H398.114V430.435C398.114 426.932 396.263 424.767 393.219 424.767C390.123 424.767 388.136 427.067 388.136 430.613C388.136 434.18 390.092 436.439 393.219 436.439C395.687 436.439 397.445 435.246 397.967 433.322H396.169ZM393.198 426.356C394.987 426.356 396.179 427.674 396.221 429.672H390.008C390.144 427.674 391.399 426.356 393.198 426.356ZM410.267 428.417C409.953 426.409 408.28 424.767 405.54 424.767C402.381 424.767 400.373 427.047 400.373 430.561C400.373 434.148 402.392 436.439 405.55 436.439C408.259 436.439 409.943 434.912 410.267 432.841H408.447C408.113 434.117 407.056 434.818 405.54 434.818C403.532 434.818 402.235 433.165 402.235 430.561C402.235 428.009 403.511 426.388 405.54 426.388C407.161 426.388 408.155 427.298 408.447 428.417H410.267ZM412.924 436.24H414.723V429.567C414.723 427.59 415.884 426.388 417.683 426.388C419.482 426.388 420.339 427.35 420.339 429.379V436.24H422.138V428.94C422.138 426.262 420.726 424.767 418.195 424.767C416.469 424.767 415.371 425.499 414.806 426.743H414.639V424.965H412.924V436.24ZM430.066 436.439C433.277 436.439 435.264 434.221 435.264 430.603C435.264 426.973 433.277 424.767 430.066 424.767C426.855 424.767 424.868 426.973 424.868 430.603C424.868 434.221 426.855 436.439 430.066 436.439ZM430.066 434.818C427.932 434.818 426.73 433.27 426.73 430.603C426.73 427.925 427.932 426.388 430.066 426.388C432.2 426.388 433.403 427.925 433.403 430.603C433.403 433.27 432.2 434.818 430.066 434.818ZM438.193 436.24H439.992V420.489H438.193V436.24ZM448.934 423.396L451.35 419.84H449.196L447.344 423.396H448.934ZM448.118 436.439C451.329 436.439 453.316 434.221 453.316 430.603C453.316 426.973 451.329 424.767 448.118 424.767C444.907 424.767 442.92 426.973 442.92 430.603C442.92 434.221 444.907 436.439 448.118 436.439ZM448.118 434.818C445.985 434.818 444.782 433.27 444.782 430.603C444.782 427.925 445.985 426.388 448.118 426.388C450.252 426.388 451.455 427.925 451.455 430.603C451.455 433.27 450.252 434.818 448.118 434.818ZM460.784 440.57C463.859 440.57 465.804 438.959 465.804 436.439V424.965H464.089V426.754H463.922C463.273 425.54 461.882 424.767 460.303 424.767C457.406 424.767 455.576 427.057 455.576 430.435C455.576 433.814 457.385 436.073 460.303 436.073C461.851 436.073 463.127 435.372 463.838 434.127H464.005V436.345C464.005 438.008 462.803 439.001 460.784 439.001C459.163 439.001 458.159 438.405 457.96 437.485H456.057C456.329 439.346 458.065 440.57 460.784 440.57ZM460.7 434.483C458.609 434.483 457.437 432.893 457.437 430.435C457.437 427.977 458.609 426.388 460.7 426.388C462.782 426.388 464.047 427.977 464.047 430.435C464.047 432.893 462.792 434.483 460.7 434.483ZM470.134 422.79C470.825 422.79 471.39 422.225 471.39 421.535C471.39 420.844 470.825 420.28 470.134 420.28C469.444 420.28 468.879 420.844 468.879 421.535C468.879 422.225 469.444 422.79 470.134 422.79ZM469.235 436.24H471.034V424.965H469.235V436.24ZM483.794 428.417C483.48 426.409 481.807 424.767 479.066 424.767C475.908 424.767 473.9 427.047 473.9 430.561C473.9 434.148 475.918 436.439 479.077 436.439C481.786 436.439 483.47 434.912 483.794 432.841H481.974C481.639 434.117 480.583 434.818 479.066 434.818C477.058 434.818 475.761 433.165 475.761 430.561C475.761 428.009 477.037 426.388 479.066 426.388C480.688 426.388 481.681 427.298 481.974 428.417H483.794ZM489.588 436.439C491.094 436.439 492.328 435.78 493.061 434.577H493.228V436.24H494.943V428.521C494.943 426.178 493.406 424.767 490.655 424.767C488.249 424.767 486.471 425.959 486.231 427.768H488.051C488.302 426.879 489.243 426.367 490.592 426.367C492.276 426.367 493.144 427.13 493.144 428.521V429.546L489.891 429.745C487.266 429.902 485.781 431.063 485.781 433.081C485.781 435.142 487.402 436.439 489.588 436.439ZM489.923 434.859C488.615 434.859 487.643 434.19 487.643 433.04C487.643 431.91 488.396 431.314 490.111 431.199L493.144 431V432.036C493.144 433.646 491.774 434.859 489.923 434.859ZM498.008 428.051C498.008 429.682 498.97 430.592 501.083 431.105L503.018 431.575C504.22 431.868 504.806 432.391 504.806 433.165C504.806 434.201 503.718 434.922 502.202 434.922C500.758 434.922 499.859 434.316 499.556 433.364H497.704C497.903 435.236 499.629 436.439 502.139 436.439C504.701 436.439 506.657 435.048 506.657 433.029C506.657 431.408 505.632 430.488 503.509 429.975L501.773 429.557C500.445 429.233 499.817 428.751 499.817 427.977C499.817 426.973 500.863 426.294 502.202 426.294C503.561 426.294 504.44 426.89 504.681 427.789H506.459C506.218 425.938 504.576 424.767 502.212 424.767C499.817 424.767 498.008 426.178 498.008 428.051ZM519.7 436.439C521.258 436.439 522.597 435.696 523.308 434.441H523.475V436.24H525.191V420.489H523.392V426.743H523.235C522.597 425.509 521.268 424.767 519.7 424.767C516.834 424.767 514.962 427.067 514.962 430.603C514.962 434.148 516.813 436.439 519.7 436.439ZM520.118 426.388C522.157 426.388 523.433 428.019 523.433 430.603C523.433 433.207 522.168 434.818 520.118 434.818C518.058 434.818 516.823 433.238 516.823 430.603C516.823 427.977 518.068 426.388 520.118 426.388ZM536.152 433.322C535.681 434.316 534.698 434.849 533.244 434.849C531.33 434.849 530.085 433.437 529.991 431.209V431.126H538.097V430.435C538.097 426.932 536.246 424.767 533.202 424.767C530.106 424.767 528.119 427.067 528.119 430.613C528.119 434.18 530.075 436.439 533.202 436.439C535.67 436.439 537.428 435.246 537.951 433.322H536.152ZM533.181 426.356C534.97 426.356 536.162 427.674 536.204 429.672H529.991C530.127 427.674 531.382 426.356 533.181 426.356ZM547.071 436.24H548.87V420.489H547.071V436.24ZM555.501 436.439C557.007 436.439 558.241 435.78 558.973 434.577H559.14V436.24H560.856V428.521C560.856 426.178 559.318 424.767 556.568 424.767C554.162 424.767 552.384 425.959 552.143 427.768H553.963C554.214 426.879 555.156 426.367 556.505 426.367C558.189 426.367 559.057 427.13 559.057 428.521V429.546L555.804 429.745C553.179 429.902 551.694 431.063 551.694 433.081C551.694 435.142 553.315 436.439 555.501 436.439ZM555.835 434.859C554.528 434.859 553.555 434.19 553.555 433.04C553.555 431.91 554.308 431.314 556.024 431.199L559.057 431V432.036C559.057 433.646 557.687 434.859 555.835 434.859ZM570.98 422.047V424.965H569.16V426.471H570.98V433.312C570.98 435.466 571.911 436.324 574.233 436.324C574.588 436.324 574.933 436.282 575.289 436.219V434.703C574.954 434.734 574.777 434.744 574.452 434.744C573.281 434.744 572.779 434.18 572.779 432.851V426.471H575.289V424.965H572.779V422.047H570.98ZM581.146 436.439C582.652 436.439 583.886 435.78 584.619 434.577H584.786V436.24H586.501V428.521C586.501 426.178 584.964 424.767 582.213 424.767C579.807 424.767 578.029 425.959 577.789 427.768H579.609C579.86 426.879 580.801 426.367 582.15 426.367C583.834 426.367 584.702 427.13 584.702 428.521V429.546L581.449 429.745C578.824 429.902 577.339 431.063 577.339 433.081C577.339 435.142 578.96 436.439 581.146 436.439ZM581.481 434.859C580.173 434.859 579.201 434.19 579.201 433.04C579.201 431.91 579.954 431.314 581.669 431.199L584.702 431V432.036C584.702 433.646 583.332 434.859 581.481 434.859ZM589.827 436.24H591.626V429.253C591.626 427.664 592.871 426.513 594.586 426.513C594.942 426.513 595.59 426.576 595.736 426.618V424.819C595.506 424.787 595.13 424.767 594.837 424.767C593.341 424.767 592.044 425.54 591.71 426.639H591.542V424.965H589.827V436.24ZM598.947 422.79C599.638 422.79 600.202 422.225 600.202 421.535C600.202 420.844 599.638 420.28 598.947 420.28C598.257 420.28 597.692 420.844 597.692 421.535C597.692 422.225 598.257 422.79 598.947 422.79ZM599.826 424.965H598.027V436.826C598.027 438.07 597.609 438.572 596.333 438.572H596.061V440.11H596.374C598.738 440.11 599.826 439.116 599.826 436.794V424.965ZM610.724 433.322C610.253 434.316 609.27 434.849 607.817 434.849C605.903 434.849 604.658 433.437 604.564 431.209V431.126H612.67V430.435C612.67 426.932 610.818 424.767 607.775 424.767C604.679 424.767 602.692 427.067 602.692 430.613C602.692 434.18 604.647 436.439 607.775 436.439C610.243 436.439 612 435.246 612.523 433.322H610.724ZM607.754 426.356C609.542 426.356 610.735 427.674 610.776 429.672H604.564C604.7 427.674 605.955 426.356 607.754 426.356ZM616.246 422.047V424.965H614.427V426.471H616.246V433.312C616.246 435.466 617.177 436.324 619.499 436.324C619.855 436.324 620.2 436.282 620.556 436.219V434.703C620.221 434.734 620.043 434.744 619.719 434.744C618.547 434.744 618.045 434.18 618.045 432.851V426.471H620.556V424.965H618.045V422.047H616.246ZM626.413 436.439C627.919 436.439 629.153 435.78 629.885 434.577H630.052V436.24H631.768V428.521C631.768 426.178 630.23 424.767 627.479 424.767C625.074 424.767 623.296 425.959 623.055 427.768H624.875C625.126 426.879 626.067 426.367 627.417 426.367C629.101 426.367 629.969 427.13 629.969 428.521V429.546L626.716 429.745C624.091 429.902 622.606 431.063 622.606 433.081C622.606 435.142 624.227 436.439 626.413 436.439ZM626.747 434.859C625.44 434.859 624.467 434.19 624.467 433.04C624.467 431.91 625.22 431.314 626.936 431.199L629.969 431V432.036C629.969 433.646 628.599 434.859 626.747 434.859ZM647.257 436.24C650.468 436.24 652.372 434.661 652.372 432.004C652.372 430.006 651.064 428.595 649.004 428.333V428.166C650.458 427.904 651.608 426.482 651.608 424.913C651.608 422.602 649.914 421.148 647.142 421.148H641.369V436.24H647.257ZM643.252 422.811H646.745C648.617 422.811 649.705 423.7 649.705 425.237C649.705 426.837 648.544 427.653 646.264 427.653H643.252V422.811ZM643.252 434.577V429.274H646.797C649.203 429.274 650.437 430.163 650.437 431.91C650.437 433.657 649.245 434.577 646.975 434.577H643.252ZM656.158 422.79C656.848 422.79 657.413 422.225 657.413 421.535C657.413 420.844 656.848 420.28 656.158 420.28C655.468 420.28 654.903 420.844 654.903 421.535C654.903 422.225 655.468 422.79 656.158 422.79ZM655.259 436.24H657.057V424.965H655.259V436.24ZM665.979 424.767C664.441 424.767 663.092 425.551 662.371 426.848H662.203V424.965H660.488V440.005H662.287V434.546H662.454C663.071 435.738 664.368 436.439 665.979 436.439C668.845 436.439 670.717 434.127 670.717 430.603C670.717 427.057 668.855 424.767 665.979 424.767ZM665.55 434.818C663.521 434.818 662.235 433.186 662.235 430.603C662.235 428.009 663.521 426.388 665.561 426.388C667.621 426.388 668.855 427.967 668.855 430.603C668.855 433.238 667.621 434.818 665.55 434.818ZM674.817 436.345C675.57 436.345 676.176 435.728 676.176 434.985C676.176 434.232 675.57 433.625 674.817 433.625C674.074 433.625 673.457 434.232 673.457 434.985C673.457 435.728 674.074 436.345 674.817 436.345Z" fill="#767679"/>
<g clip-path="url(#clip1)">
<rect x="124.48" y="465.72" width="563.04" height="73.44" rx="12.24" fill="#007AFF"/>
<path d="M317.077 512.597C321.306 512.597 324.405 510.095 324.837 506.387H321.611C321.166 508.444 319.401 509.752 317.077 509.752C313.952 509.752 312.009 507.149 312.009 502.971C312.009 498.805 313.952 496.201 317.064 496.201C319.375 496.201 321.141 497.636 321.598 499.846H324.824C324.443 496.049 321.23 493.356 317.064 493.356C311.87 493.356 308.657 497.027 308.657 502.983C308.657 508.914 311.882 512.597 317.077 512.597ZM333.626 512.419C337.779 512.419 340.306 509.702 340.306 505.193C340.306 500.71 337.766 497.992 333.626 497.992C329.498 497.992 326.945 500.723 326.945 505.193C326.945 509.702 329.46 512.419 333.626 512.419ZM333.626 509.841C331.428 509.841 330.171 508.139 330.171 505.206C330.171 502.272 331.428 500.57 333.626 500.57C335.81 500.57 337.067 502.272 337.067 505.206C337.067 508.139 335.823 509.841 333.626 509.841ZM342.961 512.14H346.11V504.05C346.11 501.967 347.292 500.659 349.171 500.659C351.089 500.659 351.978 501.739 351.978 503.898V512.14H355.128V503.161C355.128 499.859 353.438 497.992 350.34 497.992C348.269 497.992 346.872 498.932 346.212 500.481H345.996V498.259H342.961V512.14ZM358.024 502.221C358.024 504.304 359.281 505.523 361.948 506.133L364.412 506.704C365.733 507.009 366.33 507.517 366.33 508.305C366.33 509.359 365.225 510.083 363.637 510.083C362.062 510.083 361.084 509.448 360.78 508.419H357.668C357.909 510.921 360.094 512.419 363.561 512.419C367.028 512.419 369.479 510.654 369.479 508C369.479 505.955 368.247 504.825 365.593 504.215L363.142 503.669C361.745 503.339 361.084 502.844 361.084 502.056C361.084 501.027 362.164 500.329 363.599 500.329C365.072 500.329 365.999 500.964 366.228 501.942H369.187C368.959 499.44 366.888 497.992 363.586 497.992C360.31 497.992 358.024 499.732 358.024 502.221ZM384.237 498.259H381.088V506.349C381.088 508.444 379.97 509.714 377.925 509.714C376.046 509.714 375.169 508.673 375.169 506.514V498.259H372.02V507.276C372.02 510.527 373.798 512.419 376.833 512.419C378.954 512.419 380.313 511.518 380.986 509.93H381.202V512.14H384.237V498.259ZM387.705 512.14H390.855V492.887H387.705V512.14ZM395.326 494.855V498.348H393.129V500.799H395.326V508.457C395.326 511.137 396.596 512.204 399.783 512.204C400.393 512.204 400.977 512.153 401.434 512.064V509.651C401.053 509.689 400.812 509.714 400.368 509.714C399.047 509.714 398.463 509.092 398.463 507.708V500.799H401.434V498.348H398.463V494.855H395.326ZM407.887 512.369C409.703 512.369 411.227 511.581 412.002 510.235H412.217V512.14H415.253V502.653C415.253 499.719 413.246 497.992 409.677 497.992C406.375 497.992 404.077 499.541 403.823 501.967H406.794C407.087 501.015 408.077 500.494 409.525 500.494C411.227 500.494 412.141 501.269 412.141 502.653V503.847L408.56 504.063C405.182 504.253 403.289 505.714 403.289 508.203C403.289 510.743 405.207 512.369 407.887 512.369ZM408.814 509.943C407.417 509.943 406.413 509.244 406.413 508.051C406.413 506.895 407.239 506.247 409.004 506.133L412.141 505.917V507.047C412.141 508.698 410.719 509.943 408.814 509.943ZM418.53 512.14H421.68V504.075C421.68 502.12 423.102 500.85 425.147 500.85C425.68 500.85 426.518 500.938 426.76 501.027V498.157C426.468 498.081 425.909 498.03 425.452 498.03C423.661 498.03 422.162 499.046 421.781 500.418H421.565V498.259H418.53V512.14ZM434.736 507.174C434.902 510.489 437.683 512.597 441.887 512.597C446.332 512.597 449.088 510.387 449.088 506.831C449.088 504.05 447.526 502.501 443.804 501.65L441.696 501.167C439.423 500.634 438.496 499.91 438.496 498.652C438.496 497.065 439.893 496.023 442.001 496.023C444.008 496.023 445.43 497.052 445.659 498.691H448.796C448.643 495.554 445.862 493.356 442.014 493.356C437.911 493.356 435.194 495.566 435.194 498.868C435.194 501.586 436.756 503.225 440.083 503.987L442.458 504.533C444.808 505.079 445.811 505.892 445.811 507.225C445.811 508.787 444.249 509.918 442.09 509.918C439.766 509.918 438.14 508.851 437.937 507.174H434.736ZM455.616 512.369C457.432 512.369 458.956 511.581 459.731 510.235H459.947V512.14H462.982V502.653C462.982 499.719 460.976 497.992 457.407 497.992C454.105 497.992 451.806 499.541 451.552 501.967H454.524C454.816 501.015 455.807 500.494 457.254 500.494C458.956 500.494 459.871 501.269 459.871 502.653V503.847L456.289 504.063C452.911 504.253 451.019 505.714 451.019 508.203C451.019 510.743 452.936 512.369 455.616 512.369ZM456.543 509.943C455.146 509.943 454.143 509.244 454.143 508.051C454.143 506.895 454.968 506.247 456.734 506.133L459.871 505.917V507.047C459.871 508.698 458.448 509.943 456.543 509.943ZM466.386 512.14H469.536V492.887H466.386V512.14ZM478.033 512.369C479.963 512.369 481.564 511.467 482.351 509.943H482.567V512.14H485.615V492.887H482.465V500.469H482.249C481.513 498.945 479.938 498.03 478.033 498.03C474.528 498.03 472.318 500.799 472.318 505.193C472.318 509.6 474.515 512.369 478.033 512.369ZM479.011 500.659C481.17 500.659 482.503 502.399 482.503 505.206C482.503 508.025 481.183 509.752 479.011 509.752C476.852 509.752 475.544 508.051 475.544 505.206C475.544 502.374 476.865 500.659 479.011 500.659ZM495.064 512.419C499.217 512.419 501.745 509.702 501.745 505.193C501.745 500.71 499.205 497.992 495.064 497.992C490.937 497.992 488.384 500.723 488.384 505.193C488.384 509.702 490.899 512.419 495.064 512.419ZM495.064 509.841C492.867 509.841 491.61 508.139 491.61 505.206C491.61 502.272 492.867 500.57 495.064 500.57C497.249 500.57 498.506 502.272 498.506 505.206C498.506 508.139 497.262 509.841 495.064 509.841Z" fill="white"/>
</g>
</g>
<defs>
<filter id="filter0_d" x="51.04" y="57.16" width="709.92" height="561.56" filterUnits="userSpaceOnUse" color-interpolation-filters="sRGB">
<feFlood flood-opacity="0" result="BackgroundImageFix"/>
<feColorMatrix in="SourceAlpha" type="matrix" values="0 0 0 0 0 0 0 0 0 0 0 0 0 0 0 0 0 0 127 0"/>
<feOffset dy="6.12"/>
<feGaussianBlur stdDeviation="24.48"/>
<feColorMatrix type="matrix" values="0 0 0 0 0 0 0 0 0 0 0 0 0 0 0 0 0 0 0.1 0"/>
<feBlend mode="normal" in2="BackgroundImageFix" result="effect1_dropShadow"/>
<feBlend mode="normal" in="SourceGraphic" in2="effect1_dropShadow" result="shape"/>
</filter>
<clipPath id="clip0">
<rect width="287" height="160.72" fill="white" transform="translate(262.5 204.04)"/>
</clipPath>
<clipPath id="clip1">
<rect width="563.04" height="73.44" fill="white" transform="translate(124.48 465.72)"/>
</clipPath>
</defs>
</svg>
