<svg width="1080" height="811" viewBox="0 0 1080 811" fill="none" xmlns="http://www.w3.org/2000/svg">
<rect width="1080" height="811" fill="#005AD6"/>
<g filter="url(#filter0_d)">
<path d="M240 203C240 189.745 250.745 179 264 179H816C829.255 179 840 189.745 840 203V608C840 621.255 829.255 632 816 632H264C250.745 632 240 621.255 240 608V203Z" fill="white"/>
<rect x="264" y="203" width="552" height="54" rx="12" fill="#767679" fill-opacity="0.15"/>
<path d="M288.3 239H290.542V221.033H288.313L283.531 224.469V226.835L288.101 223.523H288.3V239ZM301.885 239.423C305.558 239.423 308.06 236.883 308.06 233.185C308.06 229.624 305.57 227.259 302.557 227.259C300.764 227.259 299.432 227.806 298.56 228.89H298.361L298.921 223.038H307.139V221.033H297.166L296.132 231.305H298.236C298.946 229.973 300.291 229.188 301.997 229.188C304.263 229.188 305.819 230.82 305.819 233.248C305.819 235.763 304.263 237.456 301.909 237.456C299.793 237.456 298.249 236.174 298.05 234.256H295.846C296.045 237.332 298.485 239.423 301.885 239.423ZM315.469 230.72H317.698C320.225 230.72 321.781 232.015 321.781 234.094C321.781 236.111 320.101 237.469 317.735 237.469C315.419 237.469 313.8 236.261 313.601 234.368H311.435C311.596 237.419 314.112 239.423 317.76 239.423C321.333 239.423 324.085 237.17 324.085 234.156C324.085 231.654 322.541 230.073 320.213 229.699V229.5C322.055 228.964 323.4 227.532 323.413 225.366C323.425 222.851 321.383 220.61 317.834 220.61C314.199 220.61 311.97 222.764 311.746 225.69H313.925C314.112 223.673 315.519 222.564 317.685 222.564C319.852 222.564 321.134 223.934 321.134 225.615C321.134 227.483 319.665 228.802 317.598 228.802H315.469V230.72ZM333.66 239.423C337.333 239.423 339.836 236.883 339.836 233.185C339.836 229.624 337.345 227.259 334.332 227.259C332.539 227.259 331.207 227.806 330.335 228.89H330.136L330.697 223.038H338.914V221.033H328.941L327.907 231.305H330.012C330.721 229.973 332.066 229.188 333.772 229.188C336.038 229.188 337.594 230.82 337.594 233.248C337.594 235.763 336.038 237.456 333.685 237.456C331.568 237.456 330.024 236.174 329.825 234.256H327.621C327.82 237.332 330.261 239.423 333.66 239.423ZM347.244 230.72H349.473C352 230.72 353.557 232.015 353.557 234.094C353.557 236.111 351.876 237.469 349.51 237.469C347.194 237.469 345.576 236.261 345.376 234.368H343.21C343.372 237.419 345.887 239.423 349.535 239.423C353.109 239.423 355.86 237.17 355.86 234.156C355.86 231.654 354.316 230.073 351.988 229.699V229.5C353.831 228.964 355.176 227.532 355.188 225.366C355.2 222.851 353.158 220.61 349.61 220.61C345.974 220.61 343.745 222.764 343.521 225.69H345.7C345.887 223.673 347.294 222.564 349.46 222.564C351.627 222.564 352.909 223.934 352.909 225.615C352.909 227.483 351.44 228.802 349.373 228.802H347.244V230.72ZM365.199 239.411C369.594 239.411 372.109 235.875 372.109 229.699C372.109 223.585 369.22 220.61 365.348 220.61C361.663 220.61 359.048 223.187 359.048 226.798C359.048 230.284 361.526 232.812 364.95 232.812C367.091 232.812 368.847 231.791 369.731 230.048H369.93C369.806 234.829 368.15 237.419 365.224 237.419C363.456 237.419 362.086 236.435 361.613 234.816H359.309C359.87 237.643 362.148 239.411 365.199 239.411ZM365.348 230.869C362.97 230.869 361.314 229.176 361.314 226.723C361.314 224.37 363.07 222.577 365.373 222.577C367.677 222.577 369.432 224.395 369.432 226.798C369.432 229.176 367.726 230.869 365.348 230.869ZM379.493 230.72H381.721C384.249 230.72 385.805 232.015 385.805 234.094C385.805 236.111 384.125 237.469 381.759 237.469C379.443 237.469 377.824 236.261 377.625 234.368H375.458C375.62 237.419 378.135 239.423 381.784 239.423C385.357 239.423 388.109 237.17 388.109 234.156C388.109 231.654 386.565 230.073 384.237 229.699V229.5C386.079 228.964 387.424 227.532 387.437 225.366C387.449 222.851 385.407 220.61 381.858 220.61C378.223 220.61 375.994 222.764 375.77 225.69H377.949C378.135 223.673 379.542 222.564 381.709 222.564C383.875 222.564 385.158 223.934 385.158 225.615C385.158 227.483 383.689 228.802 381.622 228.802H379.493V230.72ZM399.913 239H402.104V235.277H404.656V233.272H402.104V221.033H398.854C396.339 224.781 393.587 229.164 391.159 233.235V235.277H399.913V239ZM393.45 233.135C395.405 229.836 397.759 226.125 399.776 223.112H399.925V233.285H393.45V233.135Z" fill="black"/>
<path d="M410.191 297.277L413.291 293.38H409.954L407.788 297.277H410.191ZM404.762 299.033H401.55V310.812C401.55 314.734 404.389 317.448 408.933 317.448C413.478 317.448 416.317 314.734 416.317 310.812V299.033H413.105V310.525C413.105 312.978 411.598 314.647 408.933 314.647C406.269 314.647 404.762 312.978 404.762 310.525V299.033ZM420.028 317H423.116V298.124H420.028V317ZM427.499 300.054V303.478H425.345V305.881H427.499V313.389C427.499 316.016 428.744 317.062 431.87 317.062C432.467 317.062 433.04 317.012 433.488 316.925V314.56C433.115 314.597 432.878 314.622 432.442 314.622C431.147 314.622 430.575 314.012 430.575 312.655V305.881H433.488V303.478H430.575V300.054H427.499ZM437.635 301.112C438.656 301.112 439.49 300.303 439.49 299.282C439.49 298.273 438.656 297.452 437.635 297.452C436.626 297.452 435.792 298.273 435.792 299.282C435.792 300.303 436.626 301.112 437.635 301.112ZM436.103 317H439.179V303.391H436.103V317ZM442.504 317H445.592V308.72C445.592 307.027 446.725 305.744 448.256 305.744C449.775 305.744 450.722 306.666 450.722 308.172V317H453.722V308.496C453.722 306.939 454.781 305.744 456.387 305.744C458.043 305.744 458.877 306.628 458.877 308.396V317H461.953V307.637C461.953 304.81 460.309 303.129 457.582 303.129C455.69 303.129 454.121 304.101 453.448 305.582H453.237C452.664 304.076 451.357 303.129 449.476 303.129C447.671 303.129 446.277 304.051 445.691 305.582H445.48V303.391H442.504V317ZM470.98 317.274C475.052 317.274 477.529 314.609 477.529 310.189C477.529 305.794 475.039 303.129 470.98 303.129C466.934 303.129 464.431 305.806 464.431 310.189C464.431 314.609 466.896 317.274 470.98 317.274ZM470.98 314.746C468.826 314.746 467.593 313.078 467.593 310.202C467.593 307.325 468.826 305.657 470.98 305.657C473.122 305.657 474.354 307.325 474.354 310.202C474.354 313.078 473.134 314.746 470.98 314.746ZM486.109 307.276C486.109 309.318 487.342 310.513 489.957 311.111L492.372 311.671C493.667 311.97 494.252 312.468 494.252 313.24C494.252 314.273 493.169 314.983 491.613 314.983C490.069 314.983 489.11 314.36 488.811 313.352H485.761C485.997 315.805 488.139 317.274 491.538 317.274C494.937 317.274 497.34 315.543 497.34 312.941C497.34 310.936 496.133 309.828 493.53 309.23L491.127 308.695C489.758 308.371 489.11 307.886 489.11 307.114C489.11 306.105 490.168 305.42 491.575 305.42C493.02 305.42 493.929 306.043 494.153 307.002H497.054C496.83 304.549 494.8 303.129 491.563 303.129C488.351 303.129 486.109 304.835 486.109 307.276ZM503.703 317.224C505.484 317.224 506.978 316.452 507.738 315.132H507.949V317H510.925V307.699C510.925 304.823 508.958 303.129 505.459 303.129C502.222 303.129 499.968 304.648 499.719 307.027H502.633C502.919 306.093 503.89 305.582 505.31 305.582C506.978 305.582 507.874 306.342 507.874 307.699V308.869L504.363 309.081C501.051 309.268 499.196 310.7 499.196 313.14C499.196 315.63 501.076 317.224 503.703 317.224ZM504.612 314.846C503.243 314.846 502.259 314.161 502.259 312.991C502.259 311.858 503.068 311.223 504.799 311.111L507.874 310.899V312.007C507.874 313.626 506.48 314.846 504.612 314.846ZM514.262 317H517.35V298.124H514.262V317ZM525.681 317.224C527.573 317.224 529.142 316.34 529.914 314.846H530.126V317H533.114V298.124H530.026V305.557H529.814C529.092 304.063 527.548 303.167 525.681 303.167C522.244 303.167 520.078 305.881 520.078 310.189C520.078 314.51 522.232 317.224 525.681 317.224ZM526.639 305.744C528.756 305.744 530.063 307.45 530.063 310.202C530.063 312.966 528.769 314.659 526.639 314.659C524.523 314.659 523.24 312.991 523.24 310.202C523.24 307.425 524.535 305.744 526.639 305.744ZM542.378 317.274C546.45 317.274 548.927 314.609 548.927 310.189C548.927 305.794 546.437 303.129 542.378 303.129C538.332 303.129 535.829 305.806 535.829 310.189C535.829 314.609 538.294 317.274 542.378 317.274ZM542.378 314.746C540.224 314.746 538.991 313.078 538.991 310.202C538.991 307.325 540.224 305.657 542.378 305.657C544.52 305.657 545.752 307.325 545.752 310.202C545.752 313.078 544.532 314.746 542.378 314.746ZM557.819 317H560.907V309.094C560.907 307.176 562.301 305.931 564.306 305.931C564.829 305.931 565.65 306.018 565.887 306.105V303.291C565.601 303.217 565.053 303.167 564.605 303.167C562.849 303.167 561.38 304.163 561.006 305.508H560.794V303.391H557.819V317ZM576.446 313.277C575.998 314.298 574.939 314.871 573.408 314.871C571.378 314.871 570.071 313.427 569.996 311.123V310.961H579.509V309.978C579.509 305.707 577.181 303.129 573.296 303.129C569.349 303.129 566.896 305.881 566.896 310.251C566.896 314.609 569.312 317.274 573.321 317.274C576.533 317.274 578.812 315.73 579.372 313.277H576.446ZM573.283 305.532C575.139 305.532 576.359 306.84 576.421 308.907H570.009C570.146 306.865 571.441 305.532 573.283 305.532ZM587.951 322.18C591.923 322.18 594.439 320.2 594.439 317.075V303.391H591.463V305.57H591.251C590.504 304.088 588.885 303.167 587.03 303.167C583.556 303.167 581.402 305.881 581.402 310.052C581.402 314.136 583.544 316.801 586.98 316.801C588.873 316.801 590.355 316.004 591.139 314.535H591.351V317.125C591.351 318.855 590.118 319.876 588.001 319.876C586.308 319.876 585.212 319.266 585.013 318.307H581.913C582.162 320.648 584.453 322.18 587.951 322.18ZM587.951 314.348C585.797 314.348 584.577 312.679 584.577 310.04C584.577 307.413 585.797 305.744 587.951 305.744C590.093 305.744 591.4 307.413 591.4 310.052C591.4 312.679 590.106 314.348 587.951 314.348ZM599.295 301.112C600.316 301.112 601.15 300.303 601.15 299.282C601.15 298.273 600.316 297.452 599.295 297.452C598.286 297.452 597.452 298.273 597.452 299.282C597.452 300.303 598.286 301.112 599.295 301.112ZM597.763 317H600.839V303.391H597.763V317ZM603.853 307.276C603.853 309.318 605.085 310.513 607.7 311.111L610.116 311.671C611.41 311.97 611.996 312.468 611.996 313.24C611.996 314.273 610.912 314.983 609.356 314.983C607.812 314.983 606.853 314.36 606.555 313.352H603.504C603.741 315.805 605.882 317.274 609.281 317.274C612.68 317.274 615.084 315.543 615.084 312.941C615.084 310.936 613.876 309.828 611.273 309.23L608.87 308.695C607.501 308.371 606.853 307.886 606.853 307.114C606.853 306.105 607.912 305.42 609.319 305.42C610.763 305.42 611.672 306.043 611.896 307.002H614.797C614.573 304.549 612.544 303.129 609.306 303.129C606.094 303.129 603.853 304.835 603.853 307.276ZM618.583 300.054V303.478H616.429V305.881H618.583V313.389C618.583 316.016 619.828 317.062 622.953 317.062C623.551 317.062 624.124 317.012 624.572 316.925V314.56C624.198 314.597 623.962 314.622 623.526 314.622C622.231 314.622 621.658 314.012 621.658 312.655V305.881H624.572V303.478H621.658V300.054H618.583ZM627.15 317H630.238V309.094C630.238 307.176 631.632 305.931 633.637 305.931C634.16 305.931 634.982 306.018 635.218 306.105V303.291C634.932 303.217 634.384 303.167 633.936 303.167C632.18 303.167 630.711 304.163 630.337 305.508H630.126V303.391H627.15V317ZM640.822 317.224C642.602 317.224 644.096 316.452 644.856 315.132H645.067V317H648.043V307.699C648.043 304.823 646.076 303.129 642.577 303.129C639.34 303.129 637.086 304.648 636.837 307.027H639.751C640.037 306.093 641.008 305.582 642.428 305.582C644.096 305.582 644.993 306.342 644.993 307.699V308.869L641.482 309.081C638.17 309.268 636.314 310.7 636.314 313.14C636.314 315.63 638.194 317.224 640.822 317.224ZM641.731 314.846C640.361 314.846 639.377 314.161 639.377 312.991C639.377 311.858 640.187 311.223 641.917 311.111L644.993 310.899V312.007C644.993 313.626 643.598 314.846 641.731 314.846ZM656.187 317.224C658.079 317.224 659.648 316.34 660.42 314.846H660.632V317H663.62V298.124H660.532V305.557H660.321C659.598 304.063 658.055 303.167 656.187 303.167C652.75 303.167 650.584 305.881 650.584 310.189C650.584 314.51 652.738 317.224 656.187 317.224ZM657.146 305.744C659.262 305.744 660.57 307.45 660.57 310.202C660.57 312.966 659.275 314.659 657.146 314.659C655.029 314.659 653.746 312.991 653.746 310.202C653.746 307.425 655.041 305.744 657.146 305.744ZM672.884 317.274C676.956 317.274 679.434 314.609 679.434 310.189C679.434 305.794 676.943 303.129 672.884 303.129C668.838 303.129 666.335 305.806 666.335 310.189C666.335 314.609 668.8 317.274 672.884 317.274ZM672.884 314.746C670.73 314.746 669.498 313.078 669.498 310.202C669.498 307.325 670.73 305.657 672.884 305.657C675.026 305.657 676.259 307.325 676.259 310.202C676.259 313.078 675.038 314.746 672.884 314.746Z" fill="#767679"/>
<path d="M438.981 413.304H443.277V407.328C453.885 406.618 461.468 400.94 461.468 391.564C461.468 383.384 456.126 379.275 445.929 376.959L443.277 376.399V363.213C447.46 363.811 450.262 366.127 450.785 370.161H460.758C460.385 361.345 453.661 355.518 443.277 354.771V348.683H438.981V354.734C428.709 355.369 421.35 361.159 421.35 370.086C421.35 378.155 426.729 382.525 436.478 384.729L438.981 385.326V398.96C433.901 398.4 431.212 395.748 430.614 391.938H420.603C420.865 401.276 428.485 406.767 438.981 407.365V413.304ZM431.809 369.115C431.809 366.127 434.275 363.699 438.981 363.138V375.39C433.938 374.046 431.809 372.103 431.809 369.115ZM451.046 392.722C451.046 396.122 448.469 398.438 443.277 398.96V386.298C449.067 387.754 451.046 389.435 451.046 392.722ZM466.031 370.46H476.49C476.49 365.193 479.927 361.495 485.418 361.495C490.684 361.495 493.747 365.006 493.747 369.414C493.747 373.149 492.291 375.615 485.567 382.151L466.666 400.417V408H505.551V398.923H481.869V398.251L493.075 387.568C502.04 379.051 504.804 374.718 504.804 368.405C504.804 359.328 497.483 352.717 486.053 352.717C474.249 352.717 466.031 359.963 466.031 370.46ZM517.025 408.934C521.059 408.934 523.636 406.244 523.636 402.584C523.636 398.923 521.059 396.271 517.025 396.271C513.028 396.271 510.413 398.923 510.413 402.584C510.413 406.244 513.028 408.934 517.025 408.934ZM547.847 409.382C559.987 409.382 568.093 401.613 568.093 390.182C568.093 379.312 560.659 372.477 551.358 372.477C545.755 372.477 541.796 374.457 539.555 377.818H538.882L540.264 363.064H565.179V354.099H531.524L528.648 385.7H538.733C540.414 382.488 543.701 380.433 547.959 380.433C553.45 380.433 557.335 384.393 557.335 390.332C557.335 396.42 553.413 400.417 547.735 400.417C542.73 400.417 538.882 397.429 538.285 392.722H527.863C528.199 402.36 536.156 409.382 547.847 409.382ZM593.088 409.382C606.05 409.382 614.903 402.957 614.903 393.507C614.903 386.596 610.159 381.143 602.987 379.835V379.163C608.889 377.781 612.699 373.149 612.699 367.397C612.699 358.843 604.556 352.717 593.126 352.717C581.658 352.717 573.515 358.843 573.515 367.397C573.515 373.149 577.362 377.781 583.227 379.163V379.835C576.018 381.404 571.349 386.821 571.349 393.582C571.349 402.995 580.127 409.382 593.088 409.382ZM593.088 375.988C588.12 375.988 584.646 372.888 584.646 368.443C584.646 363.96 588.083 360.823 593.088 360.823C598.094 360.823 601.568 363.96 601.568 368.443C601.568 372.888 598.094 375.988 593.088 375.988ZM593.088 401.09C587.186 401.09 583.078 397.616 583.078 392.61C583.078 387.568 587.186 384.094 593.088 384.094C599.028 384.094 603.136 387.568 603.136 392.61C603.136 397.616 599.028 401.09 593.088 401.09ZM639.375 409.382C652.71 409.382 660.779 398.848 660.779 380.993C660.779 363.101 652.598 352.717 639.375 352.717C626.115 352.717 617.972 363.101 617.972 380.956C617.972 398.848 626.04 409.382 639.375 409.382ZM639.375 400.455C633.212 400.455 629.402 393.88 629.402 380.956C629.402 368.144 633.249 361.644 639.375 361.644C645.539 361.644 649.349 368.106 649.349 380.956C649.349 393.88 645.576 400.455 639.375 400.455Z" fill="black"/>
<path d="M285.775 482V468.865H290.543V467.204H279.161V468.865H283.929V482H285.775ZM300.571 470.946H298.808V477.488C298.808 479.426 297.741 480.585 295.793 480.585C294.029 480.585 293.291 479.662 293.291 477.673V470.946H291.527V478.104C291.527 480.718 292.819 482.195 295.301 482.195C296.993 482.195 298.172 481.498 298.726 480.267H298.89V482H300.571V470.946ZM309.564 473.971C309.564 475.571 310.507 476.463 312.579 476.965L314.476 477.427C315.655 477.714 316.229 478.227 316.229 478.985C316.229 480 315.163 480.708 313.676 480.708C312.261 480.708 311.379 480.113 311.082 479.18H309.267C309.461 481.016 311.153 482.195 313.614 482.195C316.126 482.195 318.044 480.831 318.044 478.852C318.044 477.263 317.039 476.36 314.958 475.858L313.255 475.448C311.953 475.13 311.338 474.658 311.338 473.899C311.338 472.915 312.363 472.249 313.676 472.249C315.009 472.249 315.87 472.833 316.106 473.715H317.849C317.613 471.9 316.003 470.751 313.686 470.751C311.338 470.751 309.564 472.136 309.564 473.971ZM323.889 482.195C325.365 482.195 326.575 481.549 327.293 480.37H327.457V482H329.139V474.433C329.139 472.136 327.631 470.751 324.935 470.751C322.576 470.751 320.833 471.92 320.597 473.694H322.381C322.627 472.823 323.55 472.32 324.873 472.32C326.524 472.32 327.375 473.069 327.375 474.433V475.438L324.186 475.632C321.612 475.786 320.156 476.924 320.156 478.903C320.156 480.923 321.746 482.195 323.889 482.195ZM324.217 480.646C322.935 480.646 321.981 479.99 321.981 478.862C321.981 477.755 322.72 477.17 324.401 477.058L327.375 476.863V477.878C327.375 479.457 326.032 480.646 324.217 480.646ZM332.502 482H334.266V466.558H332.502V482ZM341.782 482.195C343.31 482.195 344.622 481.467 345.319 480.236H345.483V482H347.165V466.558H345.401V472.689H345.248C344.622 471.479 343.32 470.751 341.782 470.751C338.972 470.751 337.137 473.007 337.137 476.473C337.137 479.949 338.952 482.195 341.782 482.195ZM342.192 472.341C344.191 472.341 345.442 473.94 345.442 476.473C345.442 479.026 344.202 480.605 342.192 480.605C340.172 480.605 338.962 479.057 338.962 476.473C338.962 473.899 340.182 472.341 342.192 472.341ZM355.132 482.195C358.28 482.195 360.229 480.021 360.229 476.473C360.229 472.915 358.28 470.751 355.132 470.751C351.984 470.751 350.036 472.915 350.036 476.473C350.036 480.021 351.984 482.195 355.132 482.195ZM355.132 480.605C353.041 480.605 351.861 479.088 351.861 476.473C351.861 473.848 353.041 472.341 355.132 472.341C357.224 472.341 358.403 473.848 358.403 476.473C358.403 479.088 357.224 480.605 355.132 480.605ZM374.307 470.751C372.8 470.751 371.477 471.521 370.77 472.792H370.605V470.946H368.924V485.691H370.688V480.339H370.852C371.457 481.508 372.728 482.195 374.307 482.195C377.117 482.195 378.952 479.929 378.952 476.473C378.952 472.997 377.127 470.751 374.307 470.751ZM373.887 480.605C371.897 480.605 370.636 479.006 370.636 476.473C370.636 473.93 371.897 472.341 373.897 472.341C375.917 472.341 377.127 473.889 377.127 476.473C377.127 479.057 375.917 480.605 373.887 480.605ZM386.263 482.195C389.411 482.195 391.359 480.021 391.359 476.473C391.359 472.915 389.411 470.751 386.263 470.751C383.115 470.751 381.167 472.915 381.167 476.473C381.167 480.021 383.115 482.195 386.263 482.195ZM386.263 480.605C384.171 480.605 382.992 479.088 382.992 476.473C382.992 473.848 384.171 472.341 386.263 472.341C388.355 472.341 389.534 473.848 389.534 476.473C389.534 479.088 388.355 480.605 386.263 480.605ZM398.219 482.195C399.747 482.195 401.06 481.467 401.757 480.236H401.921V482H403.603V466.558H401.839V472.689H401.685C401.06 471.479 399.757 470.751 398.219 470.751C395.41 470.751 393.574 473.007 393.574 476.473C393.574 479.949 395.389 482.195 398.219 482.195ZM398.629 472.341C400.629 472.341 401.88 473.94 401.88 476.473C401.88 479.026 400.639 480.605 398.629 480.605C396.609 480.605 395.399 479.057 395.399 476.473C395.399 473.899 396.62 472.341 398.629 472.341ZM407.027 482H408.791V475.15C408.791 473.592 410.011 472.464 411.693 472.464C412.042 472.464 412.677 472.525 412.821 472.566V470.803C412.595 470.772 412.226 470.751 411.939 470.751C410.473 470.751 409.201 471.51 408.873 472.587H408.709V470.946H407.027V482ZM416.748 469.408L419.117 465.922H417.004L415.189 469.408H416.748ZM415.066 482H416.83V470.946H415.066V482ZM423.27 482.195C424.746 482.195 425.956 481.549 426.674 480.37H426.838V482H428.52V474.433C428.52 472.136 427.012 470.751 424.315 470.751C421.957 470.751 420.214 471.92 419.978 473.694H421.762C422.008 472.823 422.931 472.32 424.254 472.32C425.905 472.32 426.756 473.069 426.756 474.433V475.438L423.567 475.632C420.993 475.786 419.537 476.924 419.537 478.903C419.537 480.923 421.126 482.195 423.27 482.195ZM423.598 480.646C422.316 480.646 421.362 479.99 421.362 478.862C421.362 477.755 422.101 477.17 423.782 477.058L426.756 476.863V477.878C426.756 479.457 425.413 480.646 423.598 480.646ZM438.445 468.085V470.946H436.661V472.423H438.445V479.129C438.445 481.241 439.358 482.082 441.634 482.082C441.983 482.082 442.321 482.041 442.67 481.979V480.493C442.342 480.523 442.167 480.534 441.85 480.534C440.701 480.534 440.209 479.98 440.209 478.678V472.423H442.67V470.946H440.209V468.085H438.445ZM452.493 479.139C452.032 480.113 451.068 480.636 449.643 480.636C447.766 480.636 446.546 479.252 446.454 477.068V476.986H454.4V476.309C454.4 472.874 452.585 470.751 449.602 470.751C446.566 470.751 444.618 473.007 444.618 476.483C444.618 479.98 446.536 482.195 449.602 482.195C452.021 482.195 453.744 481.026 454.257 479.139H452.493ZM449.581 472.31C451.334 472.31 452.503 473.602 452.544 475.561H446.454C446.587 473.602 447.817 472.31 449.581 472.31ZM457.169 482H458.933V475.458C458.933 473.52 460.071 472.341 461.834 472.341C463.598 472.341 464.439 473.284 464.439 475.273V482H466.203V474.843C466.203 472.218 464.818 470.751 462.337 470.751C460.645 470.751 459.568 471.469 459.015 472.689H458.851V470.946H457.169V482ZM476.754 479.139C476.292 480.113 475.329 480.636 473.903 480.636C472.027 480.636 470.807 479.252 470.714 477.068V476.986H478.661V476.309C478.661 472.874 476.846 470.751 473.862 470.751C470.827 470.751 468.879 473.007 468.879 476.483C468.879 479.98 470.796 482.195 473.862 482.195C476.282 482.195 478.005 481.026 478.518 479.139H476.754ZM473.842 472.31C475.595 472.31 476.764 473.602 476.805 475.561H470.714C470.848 473.602 472.078 472.31 473.842 472.31ZM481.43 482H483.193V475.15C483.193 473.592 484.414 472.464 486.095 472.464C486.444 472.464 487.08 472.525 487.223 472.566V470.803C486.998 470.772 486.628 470.751 486.341 470.751C484.875 470.751 483.604 471.51 483.275 472.587H483.111V470.946H481.43V482ZM498.431 482.195C499.907 482.195 501.117 481.549 501.835 480.37H501.999V482H503.681V474.433C503.681 472.136 502.173 470.751 499.477 470.751C497.118 470.751 495.375 471.92 495.139 473.694H496.923C497.169 472.823 498.092 472.32 499.415 472.32C501.066 472.32 501.917 473.069 501.917 474.433V475.438L498.728 475.632C496.154 475.786 494.698 476.924 494.698 478.903C494.698 480.923 496.288 482.195 498.431 482.195ZM498.759 480.646C497.477 480.646 496.523 479.99 496.523 478.862C496.523 477.755 497.262 477.17 498.943 477.058L501.917 476.863V477.878C501.917 479.457 500.574 480.646 498.759 480.646ZM507.044 482H508.808V466.558H507.044V482ZM516.785 486.245C519.8 486.245 521.707 484.666 521.707 482.195V470.946H520.025V472.7H519.861C519.226 471.51 517.862 470.751 516.313 470.751C513.473 470.751 511.679 472.997 511.679 476.309C511.679 479.621 513.453 481.836 516.313 481.836C517.831 481.836 519.082 481.149 519.779 479.929H519.943V482.103C519.943 483.733 518.764 484.707 516.785 484.707C515.196 484.707 514.211 484.123 514.017 483.22H512.15C512.417 485.045 514.119 486.245 516.785 486.245ZM516.703 480.277C514.652 480.277 513.504 478.719 513.504 476.309C513.504 473.899 514.652 472.341 516.703 472.341C518.744 472.341 519.984 473.899 519.984 476.309C519.984 478.719 518.754 480.277 516.703 480.277ZM533.971 470.946H532.207V477.488C532.207 479.426 531.141 480.585 529.192 480.585C527.429 480.585 526.69 479.662 526.69 477.673V470.946H524.927V478.104C524.927 480.718 526.219 482.195 528.7 482.195C530.392 482.195 531.571 481.498 532.125 480.267H532.289V482H533.971V470.946ZM537.293 482H539.057V475.458C539.057 473.52 540.195 472.341 541.958 472.341C543.722 472.341 544.563 473.284 544.563 475.273V482H546.327V474.843C546.327 472.218 544.942 470.751 542.461 470.751C540.769 470.751 539.692 471.469 539.139 472.689H538.975V470.946H537.293V482ZM552.633 482.195C554.109 482.195 555.319 481.549 556.037 480.37H556.201V482H557.883V474.433C557.883 472.136 556.375 470.751 553.679 470.751C551.32 470.751 549.577 471.92 549.341 473.694H551.125C551.372 472.823 552.294 472.32 553.617 472.32C555.268 472.32 556.119 473.069 556.119 474.433V475.438L552.93 475.632C550.356 475.786 548.9 476.924 548.9 478.903C548.9 480.923 550.49 482.195 552.633 482.195ZM552.961 480.646C551.679 480.646 550.726 479.99 550.726 478.862C550.726 477.755 551.464 477.17 553.146 477.058L556.119 476.863V477.878C556.119 479.457 554.776 480.646 552.961 480.646ZM560.887 473.971C560.887 475.571 561.831 476.463 563.902 476.965L565.799 477.427C566.978 477.714 567.552 478.227 567.552 478.985C567.552 480 566.486 480.708 564.999 480.708C563.584 480.708 562.702 480.113 562.405 479.18H560.59C560.785 481.016 562.477 482.195 564.938 482.195C567.45 482.195 569.367 480.831 569.367 478.852C569.367 477.263 568.362 476.36 566.281 475.858L564.579 475.448C563.276 475.13 562.661 474.658 562.661 473.899C562.661 472.915 563.687 472.249 564.999 472.249C566.332 472.249 567.193 472.833 567.429 473.715H569.172C568.937 471.9 567.327 470.751 565.009 470.751C562.661 470.751 560.887 472.136 560.887 473.971ZM578.165 482H579.929V475.458C579.929 473.592 581.016 472.341 582.995 472.341C584.666 472.341 585.548 473.315 585.548 475.273V482H587.312V474.843C587.312 472.249 585.835 470.751 583.497 470.751C581.805 470.751 580.646 471.469 580.093 472.689H579.929V466.558H578.165V482ZM595.074 482.195C598.222 482.195 600.17 480.021 600.17 476.473C600.17 472.915 598.222 470.751 595.074 470.751C591.926 470.751 589.978 472.915 589.978 476.473C589.978 480.021 591.926 482.195 595.074 482.195ZM595.074 480.605C592.982 480.605 591.803 479.088 591.803 476.473C591.803 473.848 592.982 472.341 595.074 472.341C597.166 472.341 598.345 473.848 598.345 476.473C598.345 479.088 597.166 480.605 595.074 480.605ZM602.938 482H604.702V475.15C604.702 473.592 605.922 472.464 607.604 472.464C607.953 472.464 608.588 472.525 608.732 472.566V470.803C608.506 470.772 608.137 470.751 607.85 470.751C606.384 470.751 605.112 471.51 604.784 472.587H604.62V470.946H602.938V482ZM614.013 482.195C615.489 482.195 616.699 481.549 617.417 480.37H617.581V482H619.263V474.433C619.263 472.136 617.755 470.751 615.059 470.751C612.7 470.751 610.957 471.92 610.721 473.694H612.505C612.751 472.823 613.674 472.32 614.997 472.32C616.648 472.32 617.499 473.069 617.499 474.433V475.438L614.31 475.632C611.736 475.786 610.28 476.924 610.28 478.903C610.28 480.923 611.87 482.195 614.013 482.195ZM614.341 480.646C613.059 480.646 612.105 479.99 612.105 478.862C612.105 477.755 612.844 477.17 614.525 477.058L617.499 476.863V477.878C617.499 479.457 616.156 480.646 614.341 480.646ZM622.267 473.971C622.267 475.571 623.21 476.463 625.282 476.965L627.179 477.427C628.358 477.714 628.932 478.227 628.932 478.985C628.932 480 627.866 480.708 626.379 480.708C624.964 480.708 624.082 480.113 623.785 479.18H621.97C622.165 481.016 623.856 482.195 626.317 482.195C628.83 482.195 630.747 480.831 630.747 478.852C630.747 477.263 629.742 476.36 627.661 475.858L625.958 475.448C624.656 475.13 624.041 474.658 624.041 473.899C624.041 472.915 625.066 472.249 626.379 472.249C627.712 472.249 628.573 472.833 628.809 473.715H630.552C630.316 471.9 628.707 470.751 626.389 470.751C624.041 470.751 622.267 472.136 622.267 473.971ZM643.534 482.195C645.062 482.195 646.374 481.467 647.071 480.236H647.235V482H648.917V466.558H647.153V472.689H647C646.374 471.479 645.072 470.751 643.534 470.751C640.724 470.751 638.889 473.007 638.889 476.473C638.889 479.949 640.704 482.195 643.534 482.195ZM643.944 472.341C645.943 472.341 647.194 473.94 647.194 476.473C647.194 479.026 645.954 480.605 643.944 480.605C641.924 480.605 640.714 479.057 640.714 476.473C640.714 473.899 641.934 472.341 643.944 472.341ZM659.663 479.139C659.202 480.113 658.238 480.636 656.812 480.636C654.936 480.636 653.716 479.252 653.624 477.068V476.986H661.57V476.309C661.57 472.874 659.755 470.751 656.771 470.751C653.736 470.751 651.788 473.007 651.788 476.483C651.788 479.98 653.706 482.195 656.771 482.195C659.191 482.195 660.914 481.026 661.427 479.139H659.663ZM656.751 472.31C658.504 472.31 659.673 473.602 659.714 475.561H653.624C653.757 473.602 654.987 472.31 656.751 472.31ZM674.357 482.195C675.885 482.195 677.197 481.467 677.895 480.236H678.059V482H679.74V466.558H677.977V472.689H677.823C677.197 471.479 675.895 470.751 674.357 470.751C671.547 470.751 669.712 473.007 669.712 476.473C669.712 479.949 671.527 482.195 674.357 482.195ZM674.767 472.341C676.767 472.341 678.018 473.94 678.018 476.473C678.018 479.026 676.777 480.605 674.767 480.605C672.747 480.605 671.537 479.057 671.537 476.473C671.537 473.899 672.757 472.341 674.767 472.341ZM690.486 479.139C690.025 480.113 689.061 480.636 687.636 480.636C685.759 480.636 684.539 479.252 684.447 477.068V476.986H692.394V476.309C692.394 472.874 690.579 470.751 687.595 470.751C684.56 470.751 682.611 473.007 682.611 476.483C682.611 479.98 684.529 482.195 687.595 482.195C690.015 482.195 691.737 481.026 692.25 479.139H690.486ZM687.574 472.31C689.328 472.31 690.497 473.602 690.538 475.561H684.447C684.58 473.602 685.811 472.31 687.574 472.31ZM694.906 473.971C694.906 475.571 695.849 476.463 697.92 476.965L699.817 477.427C700.997 477.714 701.571 478.227 701.571 478.985C701.571 480 700.504 480.708 699.018 480.708C697.603 480.708 696.721 480.113 696.423 479.18H694.608C694.803 481.016 696.495 482.195 698.956 482.195C701.468 482.195 703.386 480.831 703.386 478.852C703.386 477.263 702.381 476.36 700.299 475.858L698.597 475.448C697.295 475.13 696.68 474.658 696.68 473.899C696.68 472.915 697.705 472.249 699.018 472.249C700.351 472.249 701.212 472.833 701.448 473.715H703.191C702.955 471.9 701.345 470.751 699.028 470.751C696.68 470.751 694.906 472.136 694.906 473.971ZM706.893 482H708.656V472.423H711.189V470.946H708.656V469.767C708.656 468.557 709.189 467.942 710.461 467.942C710.779 467.942 711.076 467.952 711.292 467.993V466.558C710.922 466.486 710.533 466.455 710.102 466.455C708 466.455 706.893 467.511 706.893 469.716V470.946H705.057V472.423H706.893V482ZM716.531 482.195C718.008 482.195 719.218 481.549 719.936 480.37H720.1V482H721.781V474.433C721.781 472.136 720.274 470.751 717.577 470.751C715.219 470.751 713.476 471.92 713.24 473.694H715.024C715.27 472.823 716.193 472.32 717.516 472.32C719.167 472.32 720.018 473.069 720.018 474.433V475.438L716.829 475.632C714.255 475.786 712.799 476.924 712.799 478.903C712.799 480.923 714.388 482.195 716.531 482.195ZM716.859 480.646C715.578 480.646 714.624 479.99 714.624 478.862C714.624 477.755 715.362 477.17 717.044 477.058L720.018 476.863V477.878C720.018 479.457 718.674 480.646 716.859 480.646ZM724.786 473.971C724.786 475.571 725.729 476.463 727.8 476.965L729.697 477.427C730.876 477.714 731.451 478.227 731.451 478.985C731.451 480 730.384 480.708 728.897 480.708C727.482 480.708 726.601 480.113 726.303 479.18H724.488C724.683 481.016 726.375 482.195 728.836 482.195C731.348 482.195 733.266 480.831 733.266 478.852C733.266 477.263 732.261 476.36 730.179 475.858L728.477 475.448C727.175 475.13 726.56 474.658 726.56 473.899C726.56 472.915 727.585 472.249 728.897 472.249C730.23 472.249 731.092 472.833 731.328 473.715H733.071C732.835 471.9 731.225 470.751 728.908 470.751C726.56 470.751 724.786 472.136 724.786 473.971ZM743.355 479.139C742.894 480.113 741.93 480.636 740.505 480.636C738.628 480.636 737.408 479.252 737.316 477.068V476.986H745.263V476.309C745.263 472.874 743.448 470.751 740.464 470.751C737.429 470.751 735.48 473.007 735.48 476.483C735.48 479.98 737.398 482.195 740.464 482.195C742.884 482.195 744.606 481.026 745.119 479.139H743.355ZM740.443 472.31C742.197 472.31 743.366 473.602 743.407 475.561H737.316C737.449 473.602 738.68 472.31 740.443 472.31ZM749.487 482.103C750.226 482.103 750.82 481.498 750.82 480.77C750.82 480.031 750.226 479.437 749.487 479.437C748.759 479.437 748.154 480.031 748.154 480.77C748.154 481.498 748.759 482.103 749.487 482.103ZM769.585 480.339H762.264V475.253H769.206V473.612H762.264V468.865H769.585V467.204H760.418V482H769.585V480.339ZM772.446 473.971C772.446 475.571 773.389 476.463 775.46 476.965L777.357 477.427C778.537 477.714 779.111 478.227 779.111 478.985C779.111 480 778.044 480.708 776.558 480.708C775.143 480.708 774.261 480.113 773.963 479.18H772.148C772.343 481.016 774.035 482.195 776.496 482.195C779.008 482.195 780.926 480.831 780.926 478.852C780.926 477.263 779.921 476.36 777.839 475.858L776.137 475.448C774.835 475.13 774.22 474.658 774.22 473.899C774.22 472.915 775.245 472.249 776.558 472.249C777.891 472.249 778.752 472.833 778.988 473.715H780.731C780.495 471.9 778.885 470.751 776.568 470.751C774.22 470.751 772.446 472.136 772.446 473.971ZM784.33 468.085V470.946H782.546V472.423H784.33V479.129C784.33 481.241 785.243 482.082 787.519 482.082C787.868 482.082 788.206 482.041 788.555 481.979V480.493C788.227 480.523 788.052 480.534 787.734 480.534C786.586 480.534 786.094 479.98 786.094 478.678V472.423H788.555V470.946H786.094V468.085H784.33ZM795.599 482.195C798.747 482.195 800.695 480.021 800.695 476.473C800.695 472.915 798.747 470.751 795.599 470.751C792.451 470.751 790.503 472.915 790.503 476.473C790.503 480.021 792.451 482.195 795.599 482.195ZM795.599 480.605C793.507 480.605 792.328 479.088 792.328 476.473C792.328 473.848 793.507 472.341 795.599 472.341C797.691 472.341 798.87 473.848 798.87 476.473C798.87 479.088 797.691 480.605 795.599 480.605ZM274.742 498.971C274.742 500.571 275.685 501.463 277.756 501.965L279.653 502.427C280.833 502.714 281.407 503.227 281.407 503.985C281.407 505 280.34 505.708 278.854 505.708C277.438 505.708 276.557 505.113 276.259 504.18H274.444C274.639 506.016 276.331 507.195 278.792 507.195C281.304 507.195 283.222 505.831 283.222 503.852C283.222 502.263 282.217 501.36 280.135 500.858L278.433 500.448C277.131 500.13 276.516 499.658 276.516 498.899C276.516 497.915 277.541 497.249 278.854 497.249C280.187 497.249 281.048 497.833 281.284 498.715H283.027C282.791 496.9 281.181 495.751 278.864 495.751C276.516 495.751 274.742 497.136 274.742 498.971ZM294.932 495.946H293.168V502.488C293.168 504.426 292.102 505.585 290.153 505.585C288.39 505.585 287.651 504.662 287.651 502.673V495.946H285.888V503.104C285.888 505.718 287.18 507.195 289.661 507.195C291.353 507.195 292.532 506.498 293.086 505.267H293.25V507H294.932V495.946ZM307.4 499.33C307.093 497.361 305.452 495.751 302.766 495.751C299.669 495.751 297.7 497.987 297.7 501.432C297.7 504.949 299.679 507.195 302.776 507.195C305.432 507.195 307.083 505.698 307.4 503.667H305.616C305.288 504.918 304.252 505.605 302.766 505.605C300.797 505.605 299.525 503.985 299.525 501.432C299.525 498.93 300.776 497.341 302.766 497.341C304.355 497.341 305.329 498.233 305.616 499.33H307.4ZM317.326 504.139C316.865 505.113 315.901 505.636 314.476 505.636C312.599 505.636 311.379 504.252 311.287 502.068V501.986H319.233V501.309C319.233 497.874 317.418 495.751 314.435 495.751C311.399 495.751 309.451 498.007 309.451 501.483C309.451 504.98 311.369 507.195 314.435 507.195C316.854 507.195 318.577 506.026 319.09 504.139H317.326ZM314.414 497.31C316.167 497.31 317.336 498.602 317.377 500.561H311.287C311.42 498.602 312.65 497.31 314.414 497.31ZM326.093 507.195C327.621 507.195 328.934 506.467 329.631 505.236H329.795V507H331.477V491.558H329.713V497.689H329.559C328.934 496.479 327.631 495.751 326.093 495.751C323.284 495.751 321.448 498.007 321.448 501.473C321.448 504.949 323.263 507.195 326.093 507.195ZM326.503 497.341C328.503 497.341 329.754 498.94 329.754 501.473C329.754 504.026 328.513 505.605 326.503 505.605C324.483 505.605 323.273 504.057 323.273 501.473C323.273 498.899 324.494 497.341 326.503 497.341ZM342.223 504.139C341.761 505.113 340.797 505.636 339.372 505.636C337.496 505.636 336.275 504.252 336.183 502.068V501.986H344.13V501.309C344.13 497.874 342.315 495.751 339.331 495.751C336.296 495.751 334.348 498.007 334.348 501.483C334.348 504.98 336.265 507.195 339.331 507.195C341.751 507.195 343.474 506.026 343.986 504.139H342.223ZM339.311 497.31C341.064 497.31 342.233 498.602 342.274 500.561H336.183C336.316 498.602 337.547 497.31 339.311 497.31ZM358.208 495.751C356.701 495.751 355.378 496.521 354.671 497.792H354.507V495.946H352.825V510.691H354.589V505.339H354.753C355.358 506.508 356.629 507.195 358.208 507.195C361.018 507.195 362.854 504.929 362.854 501.473C362.854 497.997 361.028 495.751 358.208 495.751ZM357.788 505.605C355.799 505.605 354.538 504.006 354.538 501.473C354.538 498.93 355.799 497.341 357.798 497.341C359.818 497.341 361.028 498.889 361.028 501.473C361.028 504.057 359.818 505.605 357.788 505.605ZM370.165 507.195C373.312 507.195 375.261 505.021 375.261 501.473C375.261 497.915 373.312 495.751 370.165 495.751C367.017 495.751 365.068 497.915 365.068 501.473C365.068 505.021 367.017 507.195 370.165 507.195ZM370.165 505.605C368.073 505.605 366.894 504.088 366.894 501.473C366.894 498.848 368.073 497.341 370.165 497.341C372.256 497.341 373.436 498.848 373.436 501.473C373.436 504.088 372.256 505.605 370.165 505.605ZM378.029 507H379.793V500.15C379.793 498.592 381.013 497.464 382.695 497.464C383.043 497.464 383.679 497.525 383.823 497.566V495.803C383.597 495.772 383.228 495.751 382.941 495.751C381.475 495.751 380.203 496.51 379.875 497.587H379.711V495.946H378.029V507ZM392.057 507H393.82V491.558H392.057V507ZM398.168 493.813C398.845 493.813 399.398 493.26 399.398 492.583C399.398 491.906 398.845 491.353 398.168 491.353C397.491 491.353 396.938 491.906 396.938 492.583C396.938 493.26 397.491 493.813 398.168 493.813ZM397.286 507H399.05V495.946H397.286V507ZM402.413 507H404.177V500.15C404.177 498.592 405.294 497.341 406.74 497.341C408.135 497.341 409.047 498.182 409.047 499.494V507H410.811V499.894C410.811 498.489 411.836 497.341 413.375 497.341C414.933 497.341 415.702 498.141 415.702 499.771V507H417.466V499.361C417.466 497.043 416.205 495.751 413.949 495.751C412.421 495.751 411.16 496.521 410.565 497.689H410.401C409.888 496.541 408.842 495.751 407.345 495.751C405.869 495.751 404.761 496.459 404.259 497.689H404.095V495.946H402.413V507ZM421.608 493.813C422.285 493.813 422.839 493.26 422.839 492.583C422.839 491.906 422.285 491.353 421.608 491.353C420.932 491.353 420.378 491.906 420.378 492.583C420.378 493.26 420.932 493.813 421.608 493.813ZM420.727 507H422.49V495.946H420.727V507ZM426.592 493.085V495.946H424.808V497.423H426.592V504.129C426.592 506.241 427.504 507.082 429.781 507.082C430.129 507.082 430.468 507.041 430.816 506.979V505.493C430.488 505.523 430.314 505.534 429.996 505.534C428.848 505.534 428.355 504.98 428.355 503.678V497.423H430.816V495.946H428.355V493.085H426.592ZM436.559 507.195C438.035 507.195 439.245 506.549 439.963 505.37H440.127V507H441.809V499.433C441.809 497.136 440.301 495.751 437.604 495.751C435.246 495.751 433.503 496.92 433.267 498.694H435.051C435.297 497.823 436.22 497.32 437.543 497.32C439.194 497.32 440.045 498.069 440.045 499.433V500.438L436.856 500.632C434.282 500.786 432.826 501.924 432.826 503.903C432.826 505.923 434.416 507.195 436.559 507.195ZM436.887 505.646C435.605 505.646 434.651 504.99 434.651 503.862C434.651 502.755 435.39 502.17 437.071 502.058L440.045 501.863V502.878C440.045 504.457 438.702 505.646 436.887 505.646ZM454.216 499.33C453.908 497.361 452.268 495.751 449.581 495.751C446.484 495.751 444.516 497.987 444.516 501.432C444.516 504.949 446.495 507.195 449.591 507.195C452.247 507.195 453.898 505.698 454.216 503.667H452.432C452.104 504.918 451.068 505.605 449.581 505.605C447.612 505.605 446.341 503.985 446.341 501.432C446.341 498.93 447.592 497.341 449.581 497.341C451.17 497.341 452.145 498.233 452.432 499.33H454.216ZM457.743 493.813C458.42 493.813 458.974 493.26 458.974 492.583C458.974 491.906 458.42 491.353 457.743 491.353C457.066 491.353 456.513 491.906 456.513 492.583C456.513 493.26 457.066 493.813 457.743 493.813ZM456.861 507H458.625V495.946H456.861V507ZM466.531 507.195C469.679 507.195 471.627 505.021 471.627 501.473C471.627 497.915 469.679 495.751 466.531 495.751C463.383 495.751 461.435 497.915 461.435 501.473C461.435 505.021 463.383 507.195 466.531 507.195ZM466.531 505.605C464.439 505.605 463.26 504.088 463.26 501.473C463.26 498.848 464.439 497.341 466.531 497.341C468.623 497.341 469.802 498.848 469.802 501.473C469.802 504.088 468.623 505.605 466.531 505.605ZM474.396 507H476.159V500.458C476.159 498.52 477.297 497.341 479.061 497.341C480.825 497.341 481.666 498.284 481.666 500.273V507H483.429V499.843C483.429 497.218 482.045 495.751 479.563 495.751C477.872 495.751 476.795 496.469 476.241 497.689H476.077V495.946H474.396V507ZM493.98 504.139C493.519 505.113 492.555 505.636 491.13 505.636C489.253 505.636 488.033 504.252 487.941 502.068V501.986H495.888V501.309C495.888 497.874 494.073 495.751 491.089 495.751C488.054 495.751 486.105 498.007 486.105 501.483C486.105 504.98 488.023 507.195 491.089 507.195C493.509 507.195 495.231 506.026 495.744 504.139H493.98ZM491.068 497.31C492.822 497.31 493.991 498.602 494.032 500.561H487.941C488.074 498.602 489.305 497.31 491.068 497.31ZM498.4 498.971C498.4 500.571 499.343 501.463 501.415 501.965L503.312 502.427C504.491 502.714 505.065 503.227 505.065 503.985C505.065 505 503.999 505.708 502.512 505.708C501.097 505.708 500.215 505.113 499.917 504.18H498.103C498.297 506.016 499.989 507.195 502.45 507.195C504.962 507.195 506.88 505.831 506.88 503.852C506.88 502.263 505.875 501.36 503.793 500.858L502.091 500.448C500.789 500.13 500.174 499.658 500.174 498.899C500.174 497.915 501.199 497.249 502.512 497.249C503.845 497.249 504.706 497.833 504.942 498.715H506.685C506.449 496.9 504.839 495.751 502.522 495.751C500.174 495.751 498.4 497.136 498.4 498.971ZM516.313 493.085V495.946H514.529V497.423H516.313V504.129C516.313 506.241 517.226 507.082 519.502 507.082C519.851 507.082 520.189 507.041 520.538 506.979V505.493C520.21 505.523 520.036 505.534 519.718 505.534C518.569 505.534 518.077 504.98 518.077 503.678V497.423H520.538V495.946H518.077V493.085H516.313ZM530.361 504.139C529.9 505.113 528.936 505.636 527.511 505.636C525.634 505.636 524.414 504.252 524.322 502.068V501.986H532.269V501.309C532.269 497.874 530.454 495.751 527.47 495.751C524.435 495.751 522.486 498.007 522.486 501.483C522.486 504.98 524.404 507.195 527.47 507.195C529.89 507.195 531.612 506.026 532.125 504.139H530.361ZM527.449 497.31C529.203 497.31 530.372 498.602 530.413 500.561H524.322C524.455 498.602 525.686 497.31 527.449 497.31ZM544.184 499.33C543.876 497.361 542.235 495.751 539.549 495.751C536.452 495.751 534.483 497.987 534.483 501.432C534.483 504.949 536.462 507.195 539.559 507.195C542.215 507.195 543.866 505.698 544.184 503.667H542.399C542.071 504.918 541.036 505.605 539.549 505.605C537.58 505.605 536.309 503.985 536.309 501.432C536.309 498.93 537.56 497.341 539.549 497.341C541.138 497.341 542.112 498.233 542.399 499.33H544.184ZM546.788 507H548.552V500.458C548.552 498.52 549.69 497.341 551.454 497.341C553.217 497.341 554.058 498.284 554.058 500.273V507H555.822V499.843C555.822 497.218 554.438 495.751 551.956 495.751C550.264 495.751 549.188 496.469 548.634 497.689H548.47V495.946H546.788V507ZM563.594 507.195C566.742 507.195 568.69 505.021 568.69 501.473C568.69 497.915 566.742 495.751 563.594 495.751C560.446 495.751 558.498 497.915 558.498 501.473C558.498 505.021 560.446 507.195 563.594 507.195ZM563.594 505.605C561.502 505.605 560.323 504.088 560.323 501.473C560.323 498.848 561.502 497.341 563.594 497.341C565.686 497.341 566.865 498.848 566.865 501.473C566.865 504.088 565.686 505.605 563.594 505.605ZM571.562 507H573.325V491.558H571.562V507ZM582.092 494.408L584.461 490.922H582.349L580.534 494.408H582.092ZM581.292 507.195C584.44 507.195 586.389 505.021 586.389 501.473C586.389 497.915 584.44 495.751 581.292 495.751C578.145 495.751 576.196 497.915 576.196 501.473C576.196 505.021 578.145 507.195 581.292 507.195ZM581.292 505.605C579.201 505.605 578.021 504.088 578.021 501.473C578.021 498.848 579.201 497.341 581.292 497.341C583.384 497.341 584.563 498.848 584.563 501.473C584.563 504.088 583.384 505.605 581.292 505.605ZM593.71 511.245C596.725 511.245 598.632 509.666 598.632 507.195V495.946H596.95V497.7H596.786C596.15 496.51 594.787 495.751 593.238 495.751C590.398 495.751 588.604 497.997 588.604 501.309C588.604 504.621 590.377 506.836 593.238 506.836C594.756 506.836 596.007 506.149 596.704 504.929H596.868V507.103C596.868 508.733 595.689 509.707 593.71 509.707C592.121 509.707 591.136 509.123 590.941 508.22H589.075C589.342 510.045 591.044 511.245 593.71 511.245ZM593.628 505.277C591.577 505.277 590.429 503.719 590.429 501.309C590.429 498.899 591.577 497.341 593.628 497.341C595.668 497.341 596.909 498.899 596.909 501.309C596.909 503.719 595.679 505.277 593.628 505.277ZM602.877 493.813C603.554 493.813 604.107 493.26 604.107 492.583C604.107 491.906 603.554 491.353 602.877 491.353C602.2 491.353 601.646 491.906 601.646 492.583C601.646 493.26 602.2 493.813 602.877 493.813ZM601.995 507H603.759V495.946H601.995V507ZM616.269 499.33C615.961 497.361 614.32 495.751 611.634 495.751C608.537 495.751 606.568 497.987 606.568 501.432C606.568 504.949 608.547 507.195 611.644 507.195C614.3 507.195 615.951 505.698 616.269 503.667H614.484C614.156 504.918 613.121 505.605 611.634 505.605C609.665 505.605 608.394 503.985 608.394 501.432C608.394 498.93 609.645 497.341 611.634 497.341C613.223 497.341 614.197 498.233 614.484 499.33H616.269ZM621.949 507.195C623.426 507.195 624.636 506.549 625.354 505.37H625.518V507H627.199V499.433C627.199 497.136 625.692 495.751 622.995 495.751C620.637 495.751 618.894 496.92 618.658 498.694H620.442C620.688 497.823 621.611 497.32 622.934 497.32C624.584 497.32 625.436 498.069 625.436 499.433V500.438L622.247 500.632C619.673 500.786 618.217 501.924 618.217 503.903C618.217 505.923 619.806 507.195 621.949 507.195ZM622.277 505.646C620.996 505.646 620.042 504.99 620.042 503.862C620.042 502.755 620.78 502.17 622.462 502.058L625.436 501.863V502.878C625.436 504.457 624.092 505.646 622.277 505.646ZM630.204 498.971C630.204 500.571 631.147 501.463 633.218 501.965L635.115 502.427C636.294 502.714 636.869 503.227 636.869 503.985C636.869 505 635.802 505.708 634.315 505.708C632.9 505.708 632.019 505.113 631.721 504.18H629.906C630.101 506.016 631.793 507.195 634.254 507.195C636.766 507.195 638.684 505.831 638.684 503.852C638.684 502.263 637.679 501.36 635.597 500.858L633.895 500.448C632.593 500.13 631.978 499.658 631.978 498.899C631.978 497.915 633.003 497.249 634.315 497.249C635.648 497.249 636.51 497.833 636.746 498.715H638.489C638.253 496.9 636.643 495.751 634.326 495.751C631.978 495.751 630.204 497.136 630.204 498.971ZM651.47 507.195C652.998 507.195 654.311 506.467 655.008 505.236H655.172V507H656.854V491.558H655.09V497.689H654.936C654.311 496.479 653.008 495.751 651.47 495.751C648.661 495.751 646.825 498.007 646.825 501.473C646.825 504.949 648.64 507.195 651.47 507.195ZM651.88 497.341C653.88 497.341 655.131 498.94 655.131 501.473C655.131 504.026 653.89 505.605 651.88 505.605C649.86 505.605 648.65 504.057 648.65 501.473C648.65 498.899 649.871 497.341 651.88 497.341ZM667.6 504.139C667.138 505.113 666.174 505.636 664.749 505.636C662.873 505.636 661.652 504.252 661.56 502.068V501.986H669.507V501.309C669.507 497.874 667.692 495.751 664.708 495.751C661.673 495.751 659.725 498.007 659.725 501.483C659.725 504.98 661.642 507.195 664.708 507.195C667.128 507.195 668.851 506.026 669.363 504.139H667.6ZM664.688 497.31C666.441 497.31 667.61 498.602 667.651 500.561H661.56C661.693 498.602 662.924 497.31 664.688 497.31ZM678.305 507H680.068V491.558H678.305V507ZM686.569 507.195C688.046 507.195 689.256 506.549 689.974 505.37H690.138V507H691.819V499.433C691.819 497.136 690.312 495.751 687.615 495.751C685.257 495.751 683.514 496.92 683.278 498.694H685.062C685.308 497.823 686.231 497.32 687.554 497.32C689.205 497.32 690.056 498.069 690.056 499.433V500.438L686.867 500.632C684.293 500.786 682.837 501.924 682.837 503.903C682.837 505.923 684.426 507.195 686.569 507.195ZM686.897 505.646C685.616 505.646 684.662 504.99 684.662 503.862C684.662 502.755 685.4 502.17 687.082 502.058L690.056 501.863V502.878C690.056 504.457 688.712 505.646 686.897 505.646ZM701.745 493.085V495.946H699.961V497.423H701.745V504.129C701.745 506.241 702.658 507.082 704.934 507.082C705.283 507.082 705.621 507.041 705.97 506.979V505.493C705.642 505.523 705.467 505.534 705.149 505.534C704.001 505.534 703.509 504.98 703.509 503.678V497.423H705.97V495.946H703.509V493.085H701.745ZM711.712 507.195C713.188 507.195 714.398 506.549 715.116 505.37H715.28V507H716.962V499.433C716.962 497.136 715.455 495.751 712.758 495.751C710.399 495.751 708.656 496.92 708.42 498.694H710.205C710.451 497.823 711.374 497.32 712.696 497.32C714.347 497.32 715.198 498.069 715.198 499.433V500.438L712.009 500.632C709.436 500.786 707.979 501.924 707.979 503.903C707.979 505.923 709.569 507.195 711.712 507.195ZM712.04 505.646C710.758 505.646 709.805 504.99 709.805 503.862C709.805 502.755 710.543 502.17 712.225 502.058L715.198 501.863V502.878C715.198 504.457 713.855 505.646 712.04 505.646ZM720.223 507H721.986V500.15C721.986 498.592 723.207 497.464 724.888 497.464C725.237 497.464 725.873 497.525 726.016 497.566V495.803C725.791 495.772 725.421 495.751 725.134 495.751C723.668 495.751 722.396 496.51 722.068 497.587H721.904V495.946H720.223V507ZM729.164 493.813C729.841 493.813 730.395 493.26 730.395 492.583C730.395 491.906 729.841 491.353 729.164 491.353C728.487 491.353 727.934 491.906 727.934 492.583C727.934 493.26 728.487 493.813 729.164 493.813ZM730.025 495.946H728.262V507.574C728.262 508.794 727.852 509.287 726.601 509.287H726.334V510.794H726.642C728.959 510.794 730.025 509.82 730.025 507.543V495.946ZM740.71 504.139C740.249 505.113 739.285 505.636 737.859 505.636C735.983 505.636 734.763 504.252 734.67 502.068V501.986H742.617V501.309C742.617 497.874 740.802 495.751 737.818 495.751C734.783 495.751 732.835 498.007 732.835 501.483C732.835 504.98 734.752 507.195 737.818 507.195C740.238 507.195 741.961 506.026 742.474 504.139H740.71ZM737.798 497.31C739.551 497.31 740.72 498.602 740.761 500.561H734.67C734.804 498.602 736.034 497.31 737.798 497.31ZM746.124 493.085V495.946H744.34V497.423H746.124V504.129C746.124 506.241 747.037 507.082 749.313 507.082C749.662 507.082 750 507.041 750.349 506.979V505.493C750.021 505.523 749.846 505.534 749.528 505.534C748.38 505.534 747.888 504.98 747.888 503.678V497.423H750.349V495.946H747.888V493.085H746.124ZM756.091 507.195C757.567 507.195 758.777 506.549 759.495 505.37H759.659V507H761.341V499.433C761.341 497.136 759.833 495.751 757.137 495.751C754.778 495.751 753.035 496.92 752.799 498.694H754.583C754.83 497.823 755.752 497.32 757.075 497.32C758.726 497.32 759.577 498.069 759.577 499.433V500.438L756.388 500.632C753.814 500.786 752.358 501.924 752.358 503.903C752.358 505.923 753.948 507.195 756.091 507.195ZM756.419 505.646C755.137 505.646 754.184 504.99 754.184 503.862C754.184 502.755 754.922 502.17 756.604 502.058L759.577 501.863V502.878C759.577 504.457 758.234 505.646 756.419 505.646ZM776.527 507C779.675 507 781.541 505.452 781.541 502.847C781.541 500.889 780.259 499.504 778.239 499.248V499.084C779.665 498.828 780.792 497.433 780.792 495.895C780.792 493.629 779.131 492.204 776.414 492.204H770.754V507H776.527ZM772.6 493.834H776.024C777.86 493.834 778.926 494.706 778.926 496.213C778.926 497.782 777.788 498.582 775.553 498.582H772.6V493.834ZM772.6 505.37V500.171H776.076C778.434 500.171 779.644 501.042 779.644 502.755C779.644 504.467 778.475 505.37 776.25 505.37H772.6ZM785.253 493.813C785.93 493.813 786.483 493.26 786.483 492.583C786.483 491.906 785.93 491.353 785.253 491.353C784.576 491.353 784.022 491.906 784.022 492.583C784.022 493.26 784.576 493.813 785.253 493.813ZM784.371 507H786.135V495.946H784.371V507ZM794.881 495.751C793.374 495.751 792.051 496.521 791.344 497.792H791.18V495.946H789.498V510.691H791.262V505.339H791.426C792.031 506.508 793.302 507.195 794.881 507.195C797.691 507.195 799.526 504.929 799.526 501.473C799.526 497.997 797.701 495.751 794.881 495.751ZM794.461 505.605C792.472 505.605 791.21 504.006 791.21 501.473C791.21 498.93 792.472 497.341 794.471 497.341C796.491 497.341 797.701 498.889 797.701 501.473C797.701 504.057 796.491 505.605 794.461 505.605ZM803.546 507.103C804.284 507.103 804.879 506.498 804.879 505.77C804.879 505.031 804.284 504.437 803.546 504.437C802.818 504.437 802.213 505.031 802.213 505.77C802.213 506.498 802.818 507.103 803.546 507.103Z" fill="#767679"/>
<rect x="264" y="536" width="552" height="72" rx="12" fill="#007AFF"/>
<path d="M453.722 581.448C457.869 581.448 460.907 578.995 461.33 575.36H458.167C457.732 577.377 456.001 578.659 453.722 578.659C450.659 578.659 448.754 576.107 448.754 572.01C448.754 567.926 450.659 565.374 453.71 565.374C455.976 565.374 457.707 566.781 458.155 568.947H461.318C460.944 565.224 457.794 562.585 453.71 562.585C448.617 562.585 445.467 566.183 445.467 572.023C445.467 577.837 448.63 581.448 453.722 581.448ZM469.947 581.274C474.018 581.274 476.496 578.609 476.496 574.189C476.496 569.794 474.006 567.129 469.947 567.129C465.9 567.129 463.397 569.806 463.397 574.189C463.397 578.609 465.863 581.274 469.947 581.274ZM469.947 578.746C467.793 578.746 466.56 577.078 466.56 574.202C466.56 571.325 467.793 569.657 469.947 569.657C472.088 569.657 473.321 571.325 473.321 574.202C473.321 577.078 472.101 578.746 469.947 578.746ZM479.099 581H482.187V573.069C482.187 571.027 483.345 569.744 485.187 569.744C487.068 569.744 487.939 570.802 487.939 572.919V581H491.027V572.197C491.027 568.96 489.371 567.129 486.333 567.129C484.303 567.129 482.934 568.051 482.286 569.57H482.075V567.391H479.099V581ZM493.866 571.276C493.866 573.318 495.099 574.513 497.714 575.111L500.129 575.671C501.424 575.97 502.009 576.468 502.009 577.24C502.009 578.273 500.926 578.983 499.37 578.983C497.826 578.983 496.867 578.36 496.568 577.352H493.518C493.754 579.805 495.896 581.274 499.295 581.274C502.694 581.274 505.097 579.543 505.097 576.941C505.097 574.936 503.89 573.828 501.287 573.23L498.884 572.695C497.515 572.371 496.867 571.886 496.867 571.114C496.867 570.105 497.925 569.42 499.332 569.42C500.777 569.42 501.686 570.043 501.91 571.002H504.811C504.587 568.549 502.557 567.129 499.32 567.129C496.108 567.129 493.866 568.835 493.866 571.276ZM519.566 567.391H516.478V575.322C516.478 577.377 515.383 578.622 513.378 578.622C511.535 578.622 510.676 577.601 510.676 575.484V567.391H507.588V576.231C507.588 579.419 509.331 581.274 512.307 581.274C514.386 581.274 515.719 580.39 516.379 578.833H516.59V581H519.566V567.391ZM522.966 581H526.054V562.124H522.966V581ZM530.437 564.054V567.478H528.283V569.881H530.437V577.389C530.437 580.016 531.682 581.062 534.807 581.062C535.405 581.062 535.978 581.012 536.426 580.925V578.56C536.052 578.597 535.816 578.622 535.38 578.622C534.085 578.622 533.512 578.012 533.512 576.655V569.881H536.426V567.478H533.512V564.054H530.437ZM542.752 581.224C544.532 581.224 546.026 580.452 546.786 579.132H546.998V581H549.973V571.699C549.973 568.823 548.006 567.129 544.507 567.129C541.27 567.129 539.016 568.648 538.767 571.027H541.681C541.967 570.093 542.938 569.582 544.358 569.582C546.026 569.582 546.923 570.342 546.923 571.699V572.869L543.412 573.081C540.1 573.268 538.244 574.7 538.244 577.14C538.244 579.63 540.125 581.224 542.752 581.224ZM543.661 578.846C542.291 578.846 541.307 578.161 541.307 576.991C541.307 575.858 542.117 575.223 543.847 575.111L546.923 574.899V576.007C546.923 577.626 545.528 578.846 543.661 578.846ZM553.186 581H556.274V573.094C556.274 571.176 557.669 569.931 559.673 569.931C560.196 569.931 561.018 570.018 561.255 570.105V567.291C560.968 567.217 560.42 567.167 559.972 567.167C558.217 567.167 556.747 568.163 556.374 569.508H556.162V567.391H553.186V581ZM569.075 576.132C569.237 579.381 571.964 581.448 576.085 581.448C580.443 581.448 583.145 579.282 583.145 575.795C583.145 573.069 581.613 571.55 577.965 570.715L575.898 570.242C573.669 569.719 572.761 569.01 572.761 567.777C572.761 566.22 574.13 565.199 576.197 565.199C578.164 565.199 579.559 566.208 579.783 567.814H582.858C582.709 564.739 579.982 562.585 576.21 562.585C572.188 562.585 569.523 564.751 569.523 567.989C569.523 570.653 571.055 572.259 574.317 573.006L576.645 573.542C578.949 574.077 579.932 574.874 579.932 576.181C579.932 577.713 578.401 578.821 576.284 578.821C574.006 578.821 572.412 577.775 572.213 576.132H569.075ZM589.545 581.224C591.326 581.224 592.82 580.452 593.579 579.132H593.791V581H596.767V571.699C596.767 568.823 594.8 567.129 591.301 567.129C588.064 567.129 585.81 568.648 585.561 571.027H588.474C588.761 570.093 589.732 569.582 591.151 569.582C592.82 569.582 593.716 570.342 593.716 571.699V572.869L590.205 573.081C586.893 573.268 585.038 574.7 585.038 577.14C585.038 579.63 586.918 581.224 589.545 581.224ZM590.454 578.846C589.085 578.846 588.101 578.161 588.101 576.991C588.101 575.858 588.91 575.223 590.641 575.111L593.716 574.899V576.007C593.716 577.626 592.322 578.846 590.454 578.846ZM600.104 581H603.192V562.124H600.104V581ZM611.523 581.224C613.415 581.224 614.984 580.34 615.756 578.846H615.968V581H618.956V562.124H615.868V569.557H615.656C614.934 568.063 613.39 567.167 611.523 567.167C608.086 567.167 605.919 569.881 605.919 574.189C605.919 578.51 608.074 581.224 611.523 581.224ZM612.481 569.744C614.598 569.744 615.905 571.45 615.905 574.202C615.905 576.966 614.61 578.659 612.481 578.659C610.365 578.659 609.082 576.991 609.082 574.202C609.082 571.425 610.377 569.744 612.481 569.744ZM628.22 581.274C632.292 581.274 634.769 578.609 634.769 574.189C634.769 569.794 632.279 567.129 628.22 567.129C624.173 567.129 621.671 569.806 621.671 574.189C621.671 578.609 624.136 581.274 628.22 581.274ZM628.22 578.746C626.066 578.746 624.833 577.078 624.833 574.202C624.833 571.325 626.066 569.657 628.22 569.657C630.362 569.657 631.594 571.325 631.594 574.202C631.594 577.078 630.374 578.746 628.22 578.746Z" fill="white"/>
</g>
<defs>
<filter id="filter0_d" x="192" y="137" width="696" height="549" filterUnits="userSpaceOnUse" color-interpolation-filters="sRGB">
<feFlood flood-opacity="0" result="BackgroundImageFix"/>
<feColorMatrix in="SourceAlpha" type="matrix" values="0 0 0 0 0 0 0 0 0 0 0 0 0 0 0 0 0 0 127 0"/>
<feOffset dy="6"/>
<feGaussianBlur stdDeviation="24"/>
<feColorMatrix type="matrix" values="0 0 0 0 0 0 0 0 0 0 0 0 0 0 0 0 0 0 0.1 0"/>
<feBlend mode="normal" in2="BackgroundImageFix" result="effect1_dropShadow"/>
<feBlend mode="normal" in="SourceGraphic" in2="effect1_dropShadow" result="shape"/>
</filter>
</defs>
</svg>
